<svg viewBox="0 0 183.13 166.92" xmlns="http://www.w3.org/2000/svg" xmlns:xlink="http://www.w3.org/1999/xlink" id="Layer_1" overflow="hidden"><defs></defs><path d="M9.59 152.13C9.1 152.05 7.21 151.06 7.06 150.44L7.23 143.76 8.73 142.26 80.33 141.86C113.14 134.92 130.08 99.38 112.89 69.82 90.34 31.03 30.17 43.01 24.09 87.12 24.94 87.98 41.01 85.05 39.7 90.18 39.27 91.86 21.7 108.68 20.39 109.02 19 109.39 18.55 108.86 17.55 108.19 16.02 107.17 1.99 93.14 1.04 91.68 0.26 90.47-0.22 89.67 0.09 88.14L15.09 87.13C14.84 79.3 18.36 71.38 22.28 64.82 35.42 42.84 60.27 33.96 85.09 38.13 86.15 8.43 118.52-9.15 144.77 4.94 147.14 6.21 151.67 10.63 152.81 10.96 156.46 12.02 160.36 8.43 164.06 10.15 164.81 11.25 155.68 32.94 154.45 33.2 152.03 33.72 134.48 21.92 133.53 20.14 132.69 18.57 133.42 18.03 134.57 17.09L141.6 14.11C121.49-0.19 91.17 17.62 94.25 41.95 135.89 59.77 140.89 115.95 104.09 142.11L161.09 142.11C161.52 137.92 160.14 132.17 161.84 128.36 162.31 127.3 161.72 126.81 163.59 127.08L183.12 146.61C180.56 149.75 166.23 167.1 163.57 166.9 159.01 163.88 161.8 156.84 161.08 152.11L9.59 152.11Z" fill="#FFFFFF"/></svg>