<svg viewBox="0 0 689.27 173.82" xmlns="http://www.w3.org/2000/svg" xmlns:xlink="http://www.w3.org/1999/xlink" id="Layer_1" overflow="hidden"><defs></defs><path d="M688.27 86.91C688.27 85.57 688.24 84.24 688.18 82.91" stroke="#F2585C" stroke-width="1.99998" stroke-linecap="round" stroke-miterlimit="10" fill="none"/><path d="M687.43 74.89C681.58 33.14 645.72 1 602.36 1 554.91 1 516.45 39.46 516.45 86.91 516.45 134.36 477.99 172.82 430.54 172.82 383.09 172.82 344.63 134.36 344.63 86.91 344.63 39.46 306.17 1 258.73 1 211.29 1 172.82 39.46 172.82 86.91 172.82 134.36 134.36 172.82 86.91 172.82 42.16 172.82 5.41 138.61 1.37 94.92" stroke="#F2585C" stroke-width="1.99998" stroke-linecap="round" stroke-miterlimit="10" stroke-dasharray="8.06 8.06" fill="none"/><path d="M1.09 90.91C1.03 89.58 1 88.25 1 86.91" stroke="#F2585C" stroke-width="1.99998" stroke-linecap="round" stroke-miterlimit="10" fill="none"/></svg>