<svg width="101" height="48" xmlns="http://www.w3.org/2000/svg" xmlns:xlink="http://www.w3.org/1999/xlink" overflow="hidden"><g transform="translate(-783 -460)"><g><g><g><path d="M28.7427 0.77919C33.9773 0.77919 38.2208 5.02266 38.2208 10.2573L38.2208 28.7427C38.2208 33.9773 33.9773 38.2208 28.7427 38.2208L10.2573 38.2208C5.02266 38.2208 0.77919 33.9773 0.77919 28.7427L0.77919 10.2573C0.77919 5.02266 5.02266 0.77919 10.2573 0.77919Z" stroke="#FFFFFF" stroke-width="1.55838" stroke-miterlimit="10" fill="none" transform="matrix(1.02564 0 0 1 814 461)"/><path d="M19.1088 24.4073 14.5927 19.8912C14.1064 19.4049 14.1064 18.6164 14.5927 18.1302L18.5509 14.1719 12.0026 7.62359C11.8032 7.42412 11.4697 7.42412 11.2764 7.62982 6.08703 13.2057 6.20858 21.9326 11.638 27.362 17.0674 32.7914 25.7943 32.913 31.3702 27.7236 31.579 27.5303 31.579 27.1968 31.3764 26.9974L24.8281 20.4491 20.8698 24.4073C20.3836 24.8936 19.5951 24.8936 19.1088 24.4073Z" fill="#FFFFFF" transform="matrix(1.02564 0 0 1 814 461)"/></g></g></g><path d="M863 487C874.046 487 883 495.73 883 506.5" stroke="#FFFFFF" stroke-width="1.66667" stroke-linecap="round" stroke-miterlimit="8" fill="none" fill-rule="evenodd"/><path d="M19.5 0C30.2696-4.96522e-15 39 8.73045 39 19.5" stroke="#FFFFFF" stroke-width="1.66667" stroke-linecap="round" stroke-miterlimit="8" fill="none" fill-rule="evenodd" transform="matrix(-1 0 0 1 824 487)"/></g></svg>