<svg viewBox="0 0 52.49 57.14" xmlns="http://www.w3.org/2000/svg" xmlns:xlink="http://www.w3.org/1999/xlink" id="Layer_1" overflow="hidden"><defs></defs><path d="M18.01 28.41C19.38 28.41 20.83 28.41 22.22 28.41 22.07 27.33 22.81 26.2 23.8 25.83 21.43 20.05 30.71 19.56 28.64 25.62 29.82 25.92 30.37 27.19 30.43 28.35 30.92 28.36 31.41 28.35 31.9 28.35 32.16 28.35 33.51 28.39 33.58 28.35 33.93 28.35 33.89 28.35 34.25 28.35 34.25 29.43 34.32 30.66 34.32 31.71 34.32 32.48 34.37 33.32 34.32 34.08 34.31 34.33 34.23 35.41 34.19 35.53 34.05 35.94 32.78 35.86 32.42 35.7L32.42 37.49 30.74 37.49 30.74 35.86C30.74 35.86 30.59 35.7 30.58 35.7L21.69 35.7 21.69 37.49 20.01 37.49 20.01 35.7 18.07 35.7C17.84 35.7 17.95 34.91 17.95 34.69 17.95 33.72 17.96 32.72 17.96 31.75 17.96 31.34 18 28.55 18 28.4ZM27.02 23.13C25.99 22.18 24.1 23.96 25.31 25.1 26.52 26.24 28.11 24.15 27.02 23.13ZM23.69 28.35 28.48 28.35C29 28.35 28.71 27.68 28.37 27.4 27.58 26.76 26.27 27.29 25.32 26.97 24.49 27 23.9 27.58 23.69 28.35ZM25.48 30.03 19.7 30.03C19.68 31.2 19.59 32.6 19.59 33.77 19.59 33.89 19.51 34.13 19.75 34.13L25.48 34.13 25.48 30.03ZM32.63 34.14 32.63 30.2C32.63 30.2 32.48 30.04 32.47 30.04L27.05 30.04 27.05 34.14 32.62 34.14Z" fill="#FFFFFF"/><path d="M19.53 8.48C18.38 8.34 18.18 7.66 18.91 6.81 21.09 4.98 22.96 2.54 25.1 0.7 25.25 0.57 25.92 0.03 26.05 0.01 26.9-0.09 28.29 1.78 28.88 2.35 30.18 3.62 32.44 5.41 33.47 6.75 33.8 7.18 34.17 7.72 33.62 8.15 33.55 8.2 32.94 8.48 32.9 8.48L30.06 8.48C29.94 8.48 29.91 8.74 29.9 8.84 29.75 10.12 30.1 11.61 30.02 12.95 29.99 13.42 30 14.04 29.56 14.28 28.66 14.78 28.3 14.06 28.23 13.26 28.12 12.04 28.06 8.64 28.25 7.5 28.48 6.14 30.01 6.71 30.96 6.63L26.27 2.17 21.71 6.58 23.45 6.58C23.56 6.58 24.26 7.04 24.24 7.27 24.12 9.21 24.41 11.35 24.24 13.27 24.09 15.02 22.46 14.89 22.44 13.06 22.44 12.76 22.56 12.5 22.56 12.22 22.56 10.97 22.54 9.73 22.56 8.48 21.61 8.4 20.49 8.59 19.56 8.48Z" fill="#FFFFFF"/><path d="M38.52 28.98C37.6 20.83 29.7 15.85 21.91 18.52 21.23 18.75 19.89 19.77 19.4 18.82 18.88 17.82 20.4 17.24 21.12 16.99 31.92 13.26 42.37 22.22 39.95 33.4 39.45 35.72 37.47 39.46 35.53 40.86 34.99 41.25 34.17 41.26 34.1 40.49 34.01 39.49 36.02 37.87 36.61 37 37.76 35.3 38.33 33.21 38.52 31.18 38.61 30.27 38.62 29.89 38.52 28.97Z" fill="#FFFFFF"/><path d="M13.91 28.67C13.77 29.79 13.78 30.61 13.91 31.72 14.79 39.28 22.22 44.22 29.58 42.18 30.23 42 32.56 40.83 32.71 42.09 32.84 43.19 30.41 43.78 29.58 43.97 21.44 45.88 12.92 40.1 12.12 31.72 12.04 30.9 12.05 29.39 12.12 28.57 12.34 26.01 14.45 21.65 16.53 20.1 17.29 19.53 18.4 19.85 18.06 20.9 17.95 21.25 17.04 21.97 16.74 22.32 15.18 24.18 14.2 26.25 13.9 28.68Z" fill="#FFFFFF"/><path d="M29.89 48.33 33.52 48.33C33.52 48.33 34.11 48.66 34.15 48.75 34.26 48.98 34.25 49.43 34.1 49.65 32.59 51.23 30.96 52.7 29.41 54.22 28.69 54.93 27.77 56.13 27.05 56.7 26.63 57.03 26.14 57.4 25.68 56.91 23.73 54.63 20.92 52.58 19.06 50.28 18.74 49.88 18.06 49.04 18.64 48.6 18.71 48.55 19.27 48.34 19.32 48.34L22.53 48.34 22.53 46.39C22.53 45.84 23.99 45.4 24.19 46.31 24.28 46.7 24.28 49.14 24.21 49.54 24.15 49.84 23.68 50.12 23.42 50.12L21.37 50.12 26.25 55.05 31.15 50.17C29.97 50.09 28.38 50.7 28.21 49.01 28.14 48.35 28.07 46.24 28.63 45.86 30.05 44.93 30.19 47.48 29.89 48.32Z" fill="#FFFFFF"/><path d="M50.61 46.02C49.84 46.48 48.72 48.61 47.72 48.24 47.23 48.06 47.16 47.6 47.25 47.13 47.32 46.76 49.93 44.17 50.4 43.76 51.23 43.04 52.1 42.32 52.4 43.97 52.17 47.19 52.69 50.8 52.4 53.97 52.34 54.59 52.14 54.81 51.51 54.86 48.34 55.15 44.73 54.63 41.51 54.86 39.89 54.39 40.85 53.41 41.56 52.59 42.07 52.01 43.94 50.07 44.52 49.76 44.83 49.6 45.02 49.57 45.34 49.76 46.8 50.65 43.47 52.93 43.67 53.06L50.61 53.06C50.61 53.06 50.61 46.01 50.61 46.01Z" fill="#FFFFFF"/><path d="M8.76 53.07C8.2 52.28 6.86 51.58 6.86 50.5 6.86 49.67 7.63 49.53 8.23 49.97 9.14 50.62 10.88 52.44 11.59 53.34 12.06 53.94 11.89 54.53 11.18 54.81 7.99 54.7 4.39 55.13 1.23 54.86 0.67 54.81 0.2 54.69 0.13 54.07-0.11 52.13 0.16 49.28 0.13 47.23 0.12 46.29-0.08 45.27 0.02 44.29 0.13 43.19 0.67 42.61 1.65 43.4 2.16 43.81 2.78 44.63 3.28 45.14 3.83 45.7 5.92 47.05 4.71 47.92 4.08 48.38 3.44 47.78 2.97 47.34 2.63 47.02 2.44 46.42 1.92 46.44L1.92 53.07 8.76 53.07Z" fill="#FFFFFF"/><path d="M43.56 10.89C44.37 11.5 44.48 12.95 43.2 12.78 42.66 12.71 40.77 10.79 40.59 10.23 40.4 9.64 40.45 9.24 41.11 9.13 44.13 9.35 47.82 8.75 50.76 9.1 51.12 9.14 51.66 9.37 51.66 9.78 51.67 12.34 51.63 14.9 51.66 17.47 51.66 18.21 51.87 18.57 51.61 19.41 51.22 20.69 50.54 20.2 49.77 19.57 49.37 19.24 47.26 17.15 47.17 16.81 47.07 16.43 47.15 15.91 47.56 15.78 48.62 15.43 49.23 16.6 49.88 17.21L49.88 10.9 43.57 10.9Z" fill="#FFFFFF"/><path d="M2.55 17.2C2.75 17.25 2.75 17.13 2.85 17.02 3.33 16.49 4.12 15.45 4.95 15.8 5.7 16.12 5.25 16.88 4.92 17.4 4.56 17.97 2.43 20.12 1.85 20.23 1.21 20.35 0.93 19.55 0.88 19.04 0.65 16.99 0.92 14.24 0.88 12.09 0.86 11.01 0.3 9.38 1.87 9.09 4.71 9.38 8.36 8.69 11.1 9.12 13.15 9.44 10.8 11.65 10.07 12.24 9.59 12.63 9.15 13.04 8.61 12.45 8.03 11.82 8.55 11.42 8.87 10.88L2.55 10.88 2.55 17.19Z" fill="#FFFFFF"/><path d="M7.36 13.97C7.62 13.92 7.75 13.94 7.99 14.03 8.74 14.32 10.9 16.52 9.86 17.21 9.26 17.61 8.58 17.02 8.12 16.63 7.54 16.14 5.82 14.27 7.36 13.97Z" fill="#FFFFFF"/><path d="M38.89 39.97C39.9 40 42.1 42.1 41.04 43.02 40.84 43.19 40.59 43.29 40.34 43.21 39.58 42.96 37.75 41.3 38.01 40.42 38.09 40.15 38.63 39.97 38.89 39.98Z" fill="#FFFFFF"/><path d="M44.58 16.43C44.05 16.92 43.23 17.62 42.62 16.84 41.95 15.99 43.46 14.61 44.16 14.17 44.86 13.73 45.78 14.05 45.67 14.93 45.63 15.26 44.85 16.18 44.58 16.43Z" fill="#FFFFFF"/><path d="M40.38 17.96C41.07 17.75 41.77 18.39 41.55 19.13 41.53 19.19 40.94 19.88 40.84 20 40.29 20.59 38.95 21.96 38.39 20.65 38.14 20.06 38.67 19.57 39.04 19.15 39.23 18.93 40.18 18.02 40.38 17.96Z" fill="#FFFFFF"/><path d="M45.22 47.04C45.01 47.3 44.5 47.33 44.19 47.23 43.85 47.12 42.25 45.29 42.2 44.9 42.14 44.42 42.62 43.91 43.05 43.96 43.81 44.04 45.97 46.1 45.22 47.04Z" fill="#FFFFFF"/><path d="M11.45 17.75C12.2 17.61 15.11 20.25 13.59 20.93 12.64 21.36 10.81 19.45 10.86 18.63 10.87 18.41 11.24 17.79 11.45 17.75Z" fill="#FFFFFF"/><path d="M14.3 40.37C14.85 41.05 13.33 42.46 12.8 42.86 12.37 43.19 12.11 43.42 11.57 43.15 10.33 42.54 12.22 40.79 12.84 40.34 13.31 40 13.86 39.82 14.3 40.36Z" fill="#FFFFFF"/><path d="M7.98 45.24C8.47 44.7 9.17 43.83 10.02 44.18 10.87 44.53 10.23 45.36 9.87 45.81 9.39 46.39 7.95 48.04 7.3 46.9 6.9 46.18 7.56 45.71 7.98 45.24Z" fill="#FFFFFF"/></svg>