<svg viewBox="0 0 290.57 341.67" xmlns="http://www.w3.org/2000/svg" xmlns:xlink="http://www.w3.org/1999/xlink" id="Layer_1" overflow="hidden"><defs></defs><path d="M235 216.31C223.26 228.03 204.16 224.95 190.08 229.89 178.01 234.12 168.43 247.27 155.58 251.39 133.6 258.44 123.93 243.25 107.88 233.64 90.22 223.07 66.47 230.79 52.94 212.58 43.76 200.22 46.78 183.32 41.54 169.98 36.87 158.09 23.92 148.71 20.03 135.48 12.46 109.73 37.82 98.73 43.05 77.87 47.05 61.89 44.55 42.66 61.05 32.87 72.11 26.3 84.59 27.41 96.57 24.39 117.25 19.18 127.22-5.06 152.56 0.96 168.75 4.81 178.22 20.39 194.13 24.39 207.64 27.79 223.99 26.05 234.89 36.63 245.79 47.21 244.37 64.8 247.65 77.87 252.88 98.74 278.24 109.74 270.67 135.48 266.78 148.7 253.83 158.09 249.16 169.98 243.52 184.35 247.14 204.19 234.99 216.31ZM225.02 206.33C232.75 198.6 231.68 174.45 236.86 162.67 241.46 152.21 257.98 137.76 258.27 127.07 258.57 115.77 240.37 99.71 235.87 87.65 231.74 76.57 232.47 55.1 225.37 47.15 218.72 39.71 194.91 39.98 184.37 36.15 172.24 31.73 156.39 13.46 144.95 13.76 133.51 14.06 118.37 31.78 106.34 36.15 95.8 39.98 71.99 39.71 65.34 47.15 58.24 55.1 58.97 76.57 54.84 87.65 50.39 99.6 32.74 115.21 32.44 126.26 32.14 137.31 49.11 151.88 53.85 162.66 58.97 174.32 58.01 197.66 64.92 205.59 71.83 213.52 97.78 213.12 109.35 218.16 120.92 223.2 132.34 238.49 144.84 238.73 158.24 238.98 169.41 223.48 181.35 218.16 193.29 212.84 217.74 213.61 225.01 206.32Z" fill="#FFFFFF"/><path d="M209.37 318.66C211.64 319.08 210.96 318.53 211.59 317.39 215.38 310.48 225.2 284.45 230.44 281.24 231.69 280.47 233.17 279.94 234.66 280.02L270.36 284.66 237.81 227.69C235.24 220.06 244.46 214.46 249.83 220.7L289.8 289.72C291.87 296.02 289.85 300.77 282.86 300.76L238.35 295.11 216.79 337.62C213.11 342.46 208.21 343.34 204.5 338.03L162.13 260.4C158.51 251.43 169.45 246.36 174.79 253.74L209.36 318.68Z" fill="#FFFFFF"/><path d="M19.36 283.66 66.34 281.18C71.29 283.41 78.78 309.35 82.13 315.39 82.76 316.52 82.06 317.09 84.34 316.66L113.9 257.7C119.88 250.49 129.45 256.8 125.58 265.39 112.49 286.54 103.19 316.21 89.56 336.36 85.82 341.89 81.2 344.12 76.5 338.04L58.38 295.09 6.82 298.53C-3.81 294.91 0.31 288.86 3.85 281.64 14.22 260.49 27.7 240.05 37.91 218.7 42.48 213.18 50.05 215.43 51.08 222.32 42.3 243.45 29.06 262.81 19.38 283.66Z" fill="#FFFFFF"/><path d="M136.16 40.96C206.64 34.63 255.46 108.78 219.53 170.33 186.57 226.79 103.25 226.41 70.84 169.68 40.27 116.17 74.63 46.49 136.16 40.96ZM136.13 54.94C103.84 58.59 75.89 87.82 73.37 120.18 67.97 189.39 154.27 226.49 199.87 173.68 243.13 123.57 201.52 47.56 136.13 54.94Z" fill="#FFFFFF"/><path d="M182.1 94.82C189.19 93.52 192.87 102.65 187.79 107.6L142.42 152.22 134.8 151.72C131.12 145.85 108.94 128.57 107.55 123.95 105.58 117.39 111.12 113.08 117.41 115.11 122.1 116.62 137.05 136.06 139.72 135.59 147.49 130.5 175.98 95.93 182.1 94.81Z" fill="#FFFFFF"/></svg>