<svg viewBox="0 0 702.19 416.9" xmlns="http://www.w3.org/2000/svg" xmlns:xlink="http://www.w3.org/1999/xlink" id="Layer_1" overflow="hidden"><defs><filter id="drop-shadow-1" x="218.63" y="291.14" width="264" height="125.76" filterUnits="userSpaceOnUse" primitiveUnits="userSpaceOnUse"><feOffset dx="0" dy="0"/><feGaussianBlur result="blur" stdDeviation="4 4"/><feFlood flood-color="#010101" flood-opacity="0.2"/><feComposite in2="blur" operator="in" k1="0" k2="0" k3="0" k4="0"/><feComposite in="SourceGraphic" operator="over" k1="0" k2="0" k3="0" k4="0"/></filter><filter id="drop-shadow-2" x="284.15" y="184.34" width="134.16" height="134.16" filterUnits="userSpaceOnUse" primitiveUnits="userSpaceOnUse"><feOffset dx="0" dy="0"/><feGaussianBlur result="blur-2" stdDeviation="4 4"/><feFlood flood-color="#010101" flood-opacity="0.3"/><feComposite in2="blur-2" operator="in" k1="0" k2="0" k3="0" k4="0"/><feComposite in="SourceGraphic" operator="over" k1="0" k2="0" k3="0" k4="0"/></filter></defs><g><path d="M170.61 209.79C178.08 177.29 194.4 146.4 219.61 120.97 235.04 105.4 252.54 93.14 271.24 84.2" stroke="#181545" stroke-width="3" stroke-miterlimit="10" fill="none"/><path d="M206.02 366.7C170.11 321.54 158.28 263.46 170.61 209.79" stroke="#6D0F0F" stroke-width="3" stroke-miterlimit="10" fill="none"/><path d="M532.09 210.46C544.18 264 532.29 321.89 496.33 366.95" stroke="#6D0F0F" stroke-width="3" stroke-miterlimit="10" fill="none"/><path d="M432.09 84.58C450.02 93.26 466.84 105 481.78 119.81 507.8 145.6 524.58 177.19 532.09 210.46" stroke="#181545" stroke-width="3" stroke-miterlimit="10" fill="none"/><path d="M271.24 84.2C321.95 59.94 381.43 60.04 432.09 84.58" stroke="#6D0F0F" stroke-width="3" stroke-miterlimit="10" fill="none"/></g><path d="M528.59 292.13 507.22 272.25C509.72 253.64 508.89 234.93 504.75 216.58 503.44 210.76 501.77 204.9 499.77 199.17 495.51 186.93 489.78 175.27 482.73 164.47L493.14 137.66 464.94 142.01C451.99 128.4 436.85 117.3 419.92 108.99 402.48 100.43 383.89 95.2 364.62 93.42L350.95 69.73 337.37 93.26C323.98 94.35 310.74 97.14 297.98 101.59 292.65 103.44 287.37 105.6 282.29 108 264.68 116.31 248.97 127.64 235.54 141.71L209.27 137.66 218.87 162.38C207.87 178.63 200.05 196.55 195.62 215.67 191.16 234.94 190.35 254.58 193.21 274.1L173.82 292.14 199.24 299.95C199.62 301.13 200.01 302.29 200.4 303.41 205.82 318.98 213.53 333.45 223.33 346.5L223.26 346.56 226.37 350.44C226.37 350.44 226.4 350.48 226.42 350.5L229.55 354.4 229.62 354.34C243.86 370.96 261.71 384.68 281.52 394.19 302.85 404.43 326.56 409.84 350.1 409.84L350.79 409.84C351.06 409.84 351.33 409.84 351.6 409.83 368.81 409.67 385.84 406.69 402.21 400.98 429.07 391.62 452.75 375.36 471 353.82L471.07 353.88 474.17 349.97C474.17 349.97 474.19 349.94 474.21 349.93L477.32 346.01 477.25 345.95C487.46 332.22 495.33 317.04 500.7 300.72L528.61 292.15ZM375.94 325.57C367.95 328.35 359.7 329.82 351.4 329.95L351.29 329.95C351.19 329.95 351.09 329.95 350.96 329.95 350.94 329.95 350.06 329.95 350.06 329.95 326.56 329.95 303.71 319.05 288.93 300.79L288.88 300.73C283.19 293.71 278.78 285.77 275.79 277.14 270.89 263.06 270.08 247.99 273.43 233.57 278.94 209.82 294.72 190.3 316.72 180.04 319.16 178.91 321.68 177.88 324.21 177 332.59 174.08 341.29 172.6 350.07 172.6 362.12 172.6 374.22 175.45 385.07 180.84 403.6 190.05 417.56 205.88 424.35 225.41 425.35 228.3 426.19 231.25 426.85 234.19 432.04 257.33 426.55 281.33 411.79 300.04L411.79 300.04C402.53 311.79 390.13 320.61 375.94 325.55Z" fill="#F5F6F6"/><path d="M416.07 303.18C406.53 315.28 393.55 324.88 377.93 330.31 369.29 333.32 360.5 334.83 351.82 334.97 351.62 334.97 351.43 334.97 351.23 334.97 325.72 335.22 301.33 323.7 285.32 303.89L230.67 347.34C259.86 383.73 304.41 405.02 351.11 404.8 351.35 404.8 351.58 404.8 351.82 404.8 368.11 404.65 384.65 401.89 400.88 396.23 429.39 386.3 453.11 368.82 470.59 346.79L416.08 303.18Z" fill="#F5F6F6" filter="url(#drop-shadow-1)"/><path d="M470.58 346.79 416.07 303.18C431.3 283.89 437.74 258.26 432.1 233.1L500.19 217.68C510.65 264.04 498.74 311.3 470.59 346.79Z" fill="#6D0F0F"/><path d="M418.03 113.5 387.64 176.34C368.19 166.67 345.02 164.54 322.89 172.25 320.15 173.2 317.51 174.28 314.93 175.48L284.75 112.55C289.65 110.24 294.72 108.16 299.95 106.34 340.28 92.3 382.5 96.08 418.03 113.5Z" fill="#6D0F0F"/><path d="M268.87 232.44 200.84 216.8C211.17 172.19 241.26 133.08 284.76 112.56L314.94 175.49C291.06 186.63 274.53 208.03 268.87 232.45Z" fill="#181545"/><path d="M285.32 303.9 230.66 347.34C220.01 334.05 211.39 318.75 205.47 301.75 195.59 273.37 194.52 244.06 200.84 216.8L268.87 232.44C265.41 247.31 265.99 263.31 271.38 278.8 274.64 288.18 279.41 296.61 285.32 303.9Z" fill="#6D0F0F"/><circle cx="351.28" cy="251.48" r="64.79" fill="#F5F6F6" transform="matrix(0.99999 -0.00436331 0.00436331 0.99999 -1.08 1.52)"/><circle cx="351.28" cy="251.48" r="54.97" fill="#F5F6F6" filter="url(#drop-shadow-2)" transform="matrix(0.943512 -0.331338 0.331338 0.943512 -63.47 130.56)"/><g><path d="M350.93 79.79 356.82 89.99 362.71 100.18 350.93 100.18 339.16 100.18 345.05 89.99 350.93 79.79Z" fill="#6D0F0F"/><path d="M217.09 143.95 228.72 145.75 240.36 147.55 232.98 156.72 225.61 165.9 221.35 154.93 217.09 143.95Z" fill="#181545"/><path d="M183.6 289.88 192.22 281.86 200.84 273.84 203.47 285.32 206.11 296.79 194.85 293.34 183.6 289.88Z" fill="#6D0F0F"/><path d="M485.29 143.95 473.66 145.75 462.02 147.55 469.39 156.72 476.77 165.9 481.03 154.93 485.29 143.95Z" fill="#181545"/><path d="M518.78 289.88 510.16 281.86 501.54 273.84 498.91 285.32 496.27 296.79 507.53 293.34 518.78 289.88Z" fill="#6D0F0F"/></g><g><path d="M500.18 217.68 432.09 233.1C431.4 229.98 430.51 226.86 429.44 223.77 421.95 202.25 406.56 185.74 387.65 176.35L418.04 113.51C453.04 130.69 481.54 161.11 495.36 200.83 497.31 206.42 498.91 212.05 500.18 217.69Z" fill="#181545"/><line x1="283.98" y1="110.95" x2="315.71" y2="177.09" stroke="#F5F6F6" stroke-width="3" stroke-miterlimit="10" fill="none"/><line x1="418.49" y1="112.55" x2="387.19" y2="177.3" stroke="#F5F6F6" stroke-width="3" stroke-miterlimit="10" fill="none"/><line x1="199.49" y1="216.48" x2="270.22" y2="232.75" stroke="#F5F6F6" stroke-width="3" stroke-miterlimit="10" fill="none"/></g><line x1="500.18" y1="217.68" x2="432.09" y2="233.1" stroke="#F5F6F6" stroke-width="3" stroke-miterlimit="10" fill="none"/><path d="M357.5 66.09C357.5 69.57 354.68 72.39 351.2 72.39 347.72 72.39 344.9 69.57 344.9 66.09 344.9 62.61 347.72 59.79 351.2 59.79 354.68 59.79 357.5 62.61 357.5 66.09Z" fill="#6D0F0F"/><g><circle cx="436.43" cy="4.32" r="4.32" fill="#6D0F0F"/><circle cx="268.02" cy="4.32" r="4.32" fill="#6D0F0F"/><line x1="266.9" y1="4.32" x2="436.43" y2="4.32" stroke="#6D0F0F" stroke-miterlimit="10" fill="none"/></g><g><path d="M297.26 238.41C299.49 228.68 304.38 219.44 311.92 211.83 316.54 207.17 321.78 203.5 327.37 200.83" stroke="#181545" stroke-width="3" stroke-miterlimit="10" fill="none"/><path d="M307.86 285.37C297.11 271.86 293.57 254.48 297.26 238.41" stroke="#6D0F0F" stroke-width="3" stroke-miterlimit="10" fill="none"/><path d="M405.44 238.61C409.06 254.63 405.5 271.96 394.74 285.44" stroke="#6D0F0F" stroke-width="3" stroke-miterlimit="10" fill="none"/><path d="M375.51 200.94C380.87 203.54 385.91 207.05 390.38 211.48 398.17 219.2 403.19 228.65 405.44 238.61" stroke="#181545" stroke-width="3" stroke-miterlimit="10" fill="none"/><path d="M327.38 200.83C342.55 193.57 360.36 193.6 375.52 200.94" stroke="#6D0F0F" stroke-width="3" stroke-miterlimit="10" fill="none"/></g><g><path d="M212.32 135.49C212.32 138.97 209.5 141.79 206.02 141.79 202.54 141.79 199.72 138.97 199.72 135.49 199.72 132.01 202.54 129.19 206.02 129.19 209.5 129.19 212.32 132.01 212.32 135.49Z" fill="#181545"/><circle cx="10.74" cy="119.16" r="4.32" fill="#181545"/><path d="M206.02 135.49 189.7 119.16 10.74 119.16" stroke="#181545" stroke-miterlimit="10" fill="none"/></g><g><circle cx="691.56" cy="119.16" r="4.32" fill="#181545"/><circle cx="496.27" cy="135.49" r="6.3" fill="#181545"/><path d="M496.27 135.49 512.6 119.16 691.56 119.16" stroke="#181545" stroke-miterlimit="10" fill="none"/></g><g><circle cx="4.32" cy="309.31" r="4.32" fill="#6D0F0F"/><path d="M176.4 292.99C176.4 296.47 173.58 299.29 170.1 299.29 166.62 299.29 163.8 296.47 163.8 292.99 163.8 289.51 166.62 286.69 170.1 286.69 173.58 286.69 176.4 289.51 176.4 292.99Z" fill="#6D0F0F"/><path d="M170.1 292.99 153.77 309.31 4.32 309.31" stroke="#6D0F0F" stroke-miterlimit="10" fill="none"/></g><g><circle cx="697.87" cy="309.31" r="4.32" fill="#6D0F0F"/><circle cx="532.09" cy="292.99" r="6.3" fill="#6D0F0F"/><path d="M532.09 292.99 548.42 309.31 697.87 309.31" stroke="#6D0F0F" stroke-miterlimit="10" fill="none"/></g><g><path d="M342.6 124.2 359.42 124.18C360.37 124.3 361.12 125.05 361.24 126 361.13 131.34 361.34 136.72 361.31 142.05 361.31 143.68 360.39 144.41 358.85 144.51 353.77 144.84 348.34 144.26 343.23 144.51 341.78 144.41 341.01 143.65 340.91 142.19 340.56 137.08 341.18 131.57 340.91 126.43 341 125.31 341.47 124.49 342.6 124.2ZM343.07 142.35C343.24 142.52 343.62 142.65 343.86 142.66L358.42 142.66C359.02 142.6 359.4 142.22 359.45 141.63 359.4 136.64 359.54 131.63 359.38 126.65 359.26 126.36 359.06 126.16 358.77 126.04 353.68 125.93 348.53 125.93 343.43 126.04 343.08 126.17 342.93 126.42 342.79 126.75 342.76 131.79 342.69 136.87 342.82 141.91 342.85 142.02 342.98 142.26 343.06 142.34Z" fill="#FFFFFF"/><path d="M345.02 148.88C347.11 148.45 347.25 151.74 345.08 151.42 343.75 151.23 343.7 149.15 345.02 148.88Z" fill="#FFFFFF"/><path d="M335.11 138.75C336.9 138.55 337.05 141.25 335.37 141.37 333.69 141.49 333.47 138.92 335.11 138.75Z" fill="#FFFFFF"/><path d="M356.5 148.88C358.35 148.5 358.71 151.1 357.18 151.42 355.32 151.8 354.99 149.2 356.5 148.88Z" fill="#FFFFFF"/><path d="M335.11 127.27C336.94 127.07 337.04 129.85 335.3 129.89 333.67 129.93 333.49 127.44 335.11 127.27Z" fill="#FFFFFF"/><path d="M335.96 133.04C338.06 132.65 338.12 135.89 336.02 135.58 334.68 135.39 334.66 133.28 335.96 133.04Z" fill="#FFFFFF"/><path d="M351.08 147.82C352.78 147.79 352.84 150.4 351.14 150.44 349.44 150.48 349.36 147.86 351.08 147.82Z" fill="#FFFFFF"/><path d="M345.02 117.21C346.88 116.83 347.2 119.48 345.63 119.74 343.83 120.05 343.54 117.51 345.02 117.21Z" fill="#FFFFFF"/><path d="M366.85 138.75C368.58 138.62 368.7 141.34 366.97 141.38 365.24 141.42 365.18 138.88 366.85 138.75Z" fill="#FFFFFF"/><path d="M365.63 133.05C367.69 132.7 367.73 135.87 365.69 135.59 364.32 135.41 364.29 133.28 365.63 133.05Z" fill="#FFFFFF"/><path d="M350.87 118.21C352.23 117.99 352.96 119.73 351.85 120.55 351.26 120.98 350.4 120.8 350 120.19 349.51 119.44 349.99 118.36 350.87 118.21Z" fill="#FFFFFF"/><path d="M356.58 117.21C358.37 116.9 358.67 119.48 357.12 119.74 355.36 120.04 355.01 117.47 356.58 117.21Z" fill="#FFFFFF"/><path d="M366.85 127.27C368.59 127.13 368.67 129.84 366.97 129.89 365.39 129.93 365.15 127.41 366.85 127.27Z" fill="#FFFFFF"/><path d="M348.82 145.15 348.82 147.04C348.82 147.11 348.57 147.36 348.5 147.36L345.75 147.36 345.75 148.22C345.75 148.22 344.97 148.22 344.97 148.22L344.97 146.9C344.97 146.83 345.22 146.58 345.29 146.58L348.04 146.58 348.04 145.15 348.82 145.15Z" fill="#FFFFFF"/><path d="M340.26 136.59 340.26 137.37 338.83 137.37 338.83 140.12C338.83 140.19 338.58 140.44 338.51 140.44L337.19 140.44C337.24 140.16 337.24 139.94 337.19 139.66L338.05 139.66 338.05 136.91C338.05 136.84 338.3 136.59 338.37 136.59L340.26 136.59Z" fill="#FFFFFF"/><path d="M338.84 131.24 340.27 131.24 340.27 132.02 338.38 132.02C338.31 132.02 338.06 131.77 338.06 131.7L338.06 128.95 337.2 128.95C337.27 128.66 337.27 128.45 337.2 128.17L338.52 128.17C338.59 128.17 338.84 128.42 338.84 128.49L338.84 131.24Z" fill="#FFFFFF"/><path d="M354.17 145.15 354.17 146.58 356.92 146.58C356.99 146.58 357.24 146.83 357.24 146.9L357.24 148.22C356.95 148.15 356.74 148.15 356.46 148.22L356.46 147.36 353.71 147.36C353.64 147.36 353.39 147.11 353.39 147.04L353.39 145.15 354.17 145.15Z" fill="#FFFFFF"/><path d="M363.83 136.59C363.89 136.6 364.04 136.72 364.07 136.78 364.3 137.15 364.05 139.56 364.15 139.66L364.94 139.69C365.05 139.76 364.86 140.25 365.01 140.44L363.69 140.44C363.62 140.44 363.37 140.19 363.37 140.12L363.37 137.37 361.94 137.37 361.94 136.59C362.48 136.67 363.33 136.48 363.83 136.59Z" fill="#FFFFFF"/><path d="M344.97 120.4C345.17 120.55 345.65 120.36 345.72 120.47L345.75 121.26C345.84 121.35 348.02 121.2 348.42 121.26 348.61 121.29 348.82 121.46 348.82 121.65L348.82 123.47 348.04 123.47 348.04 122.04 345.29 122.04C345.22 122.04 344.97 121.79 344.97 121.72L344.97 120.4Z" fill="#FFFFFF"/><path d="M354.17 122.04 354.17 123.47 353.39 123.47 353.39 121.65C353.39 121.46 353.6 121.29 353.79 121.26 354.19 121.2 356.37 121.35 356.46 121.26L356.49 120.47 357.14 120.42C357.29 120.44 357.27 121.46 357.24 121.65 357.22 121.79 357.06 122.05 356.92 122.05L354.17 122.05Z" fill="#FFFFFF"/><path d="M363.37 128.5C363.41 128.34 363.61 128.21 363.77 128.18 363.95 128.15 364.97 128.13 365 128.28L364.95 128.93 364.16 128.96C364.07 129.05 364.22 131.23 364.16 131.63 364.13 131.82 363.96 132.03 363.77 132.03L361.95 132.03 361.95 131.25 363.38 131.25 363.38 128.5Z" fill="#FFFFFF"/><path d="M340.26 133.95 340.26 134.66 338.19 134.66C338.3 134.43 338.3 134.18 338.19 133.95L340.26 133.95Z" fill="#FFFFFF"/><path d="M351.46 145.15 351.46 147.22C351.23 147.11 350.98 147.11 350.75 147.22L350.75 145.15 351.46 145.15Z" fill="#FFFFFF"/><rect x="350.75" y="121.47" width="0.71" height="2" fill="#FFFFFF"/><rect x="361.94" y="133.95" width="2" height="0.71" fill="#FFFFFF"/><path d="M343.66 126.69 358.67 126.78 358.74 127.07C358.77 131.02 358.69 134.97 358.74 138.92 358.74 139.69 358.88 140.49 358.82 141.27 358.77 141.97 358.6 141.97 357.93 142.02 353.41 142.32 348.57 141.79 344.02 142.02 343.76 142.03 343.55 141.9 343.45 141.66L343.42 127.28C343.42 127.09 343.49 126.75 343.69 126.69ZM350.37 128.55C349.54 128.74 350.17 130.13 349.52 130.41 348.8 130.72 348.46 129.63 347.79 129.67 347.38 129.7 346.47 130.61 346.44 131.02 346.39 131.71 347.73 132.18 347.08 132.89 346.64 133.38 345.43 132.8 345.33 133.71 345.29 134.03 345.29 135 345.44 135.24 345.8 135.79 346.95 135.28 347.2 135.9 347.53 136.73 346.13 137.07 346.55 137.9 346.67 138.15 347.35 138.83 347.61 138.91 348.47 139.18 348.74 137.95 349.49 138.17 350.12 138.36 349.77 139.57 350.11 139.9 350.38 140.16 351.74 140.16 352.03 139.97 352.58 139.61 352.07 138.46 352.69 138.21 353.43 137.91 353.79 139.03 354.48 138.94 354.86 138.89 355.74 137.97 355.77 137.6 355.82 136.92 354.49 136.43 355.13 135.73 355.51 135.31 356.46 135.66 356.77 135.23 356.92 135.02 356.92 133.92 356.87 133.63 356.72 132.71 355.29 133.38 355 132.72 354.69 132 355.78 131.66 355.74 130.99 355.71 130.6 354.78 129.65 354.4 129.61 353.76 129.55 353.22 130.91 352.52 130.28 352.04 129.84 352.61 128.63 351.7 128.53 351.44 128.5 350.6 128.49 350.36 128.55Z" fill="#FFFFFF"/><path d="M350.73 131.69C354.24 131.21 354.85 136.56 351.42 136.94 347.99 137.32 347.37 132.14 350.73 131.69Z" fill="#FFFFFF"/></g><g><path d="M259.98 164.97C259.89 165.06 259.77 165.11 259.64 165.13 258.13 165.31 256.2 165.03 254.62 165.13 248.05 165.52 245.08 173.69 250.04 178.09 252.89 180.62 256.24 179.85 259.75 179.99 260.31 180.12 260.26 181.41 260.19 181.85 260.08 182.56 259.22 182.68 258.7 182.93 257.92 183.3 257.28 183.88 256.98 184.71 256.75 185.33 256.93 185.89 256.07 185.98 255.57 186.03 254.39 186.04 253.89 185.98 253.06 185.89 253.21 185.35 253 184.76 252.38 183 249.62 181.85 247.92 182.52 247.38 182.73 246.98 183.29 246.4 182.91 246.19 182.77 244.8 181.39 244.65 181.17 244.22 180.56 244.78 180.22 245.01 179.67 245.66 178.12 244.66 175.44 243.15 174.69 242.55 174.39 241.68 174.53 241.59 173.75 241.53 173.25 241.53 171.87 241.59 171.37 241.68 170.61 242.48 170.74 243.07 170.47 244.7 169.72 245.7 166.93 244.95 165.31 244.7 164.78 244.26 164.57 244.67 163.95 245.08 163.66 246.16 162.25 246.54 162.13 247.13 161.95 247.29 162.32 247.73 162.53 249.39 163.31 252.22 162.24 252.93 160.54 253.23 159.83 253 159.23 253.96 159.13 254.46 159.08 255.57 159.07 256.07 159.13 257 159.23 256.79 160.17 257.18 160.86 257.44 161.34 257.87 161.74 258.35 162 258.96 162.34 260.1 162.51 260.2 163.32 260.25 163.71 260.27 164.7 259.98 164.98Z" fill="#FFFFFF"/><path d="M269.5 196.19C268.58 195.9 267.75 195.77 266.79 195.94 264.29 196.38 261.5 197.77 258.96 198.33 257.33 198.69 255.72 198.54 254.19 197.89 249.66 195.96 245.22 193.15 240.7 191.13 238.64 189.73 239.79 186.63 242.3 186.95L254.3 190.18C254.57 189.49 255.03 189.05 255.68 188.71 258.12 187.91 260.56 186.68 262.99 185.93 267.08 184.68 269.83 186.65 273.38 188.25 273.89 188.02 274.27 187.86 274.83 188.05 275.34 188.22 276.89 188.94 277.34 189.24 277.99 189.67 278.07 190.31 277.81 190.99 276.92 193.33 275.29 195.72 274.35 198.08 273.97 198.72 273.48 198.94 272.74 198.78 272.47 198.72 270.4 197.75 270.13 197.57 269.64 197.25 269.48 196.75 269.51 196.18ZM264.81 187.11C262.28 187.35 259.05 189.39 256.51 190.03 255.58 190.44 255.41 191.18 256.57 191.42 257.96 191.71 260.84 191.12 262.41 191.05 262.91 191.03 263.29 191.29 263.3 191.81 263.32 192.5 262.74 192.57 262.21 192.63 260.6 192.83 258.94 192.8 257.33 193.03 256.22 192.97 255.15 192.75 254.43 191.83 250.21 190.74 246.01 189.45 241.77 188.48 241.05 188.6 240.9 189.52 241.55 189.87 245.93 191.81 250.17 194.51 254.54 196.4 256.09 197.07 257.29 197.17 258.94 196.75 261.72 196.04 265.99 193.99 268.72 194.43 269.22 194.51 269.92 194.93 270.25 194.47 270.79 193.01 271.87 191.49 272.36 190.05 272.43 189.86 272.5 189.72 272.36 189.53 272.27 189.4 271.45 189.04 271.23 188.94 269.09 187.89 267.28 186.87 264.8 187.1ZM276.36 190.45 274.58 189.62 274.38 189.62C274.38 189.62 271.09 196.38 271.09 196.38L273.07 197.21 276.37 190.45Z" fill="#FFFFFF"/><path d="M272.72 168.63 268.64 168.65 265.71 171.52 264.98 171.84 255.41 171.8C254.8 171.48 254.85 170.05 255.56 169.94L264.44 169.92C264.59 169.88 264.7 169.8 264.82 169.71 265.71 169.03 266.53 167.83 267.42 167.1 267.7 166.87 267.9 166.74 268.28 166.7 269.67 166.58 271.22 166.81 272.62 166.7 273.06 165.91 273.73 165.18 274.68 165.07 277.47 164.74 278.79 168.12 276.65 169.75 275.32 170.76 273.28 170.21 272.72 168.64ZM274.76 166.46C273.25 166.77 273.83 169.43 275.57 168.78 276.88 168.29 276.42 166.12 274.76 166.46Z" fill="#FFFFFF"/><path d="M266.59 175.36 255.62 175.36C254.83 175.32 254.8 173.73 255.4 173.49L266.43 173.44C266.59 173.41 266.86 172.83 267.02 172.65 268.88 170.52 272.45 172.58 271.39 175.37 270.57 177.52 267.34 177.54 266.58 175.36ZM268.69 173.19C268.39 173.24 268.05 173.52 267.9 173.79 267.26 174.91 268.6 176.13 269.65 175.41 270.78 174.65 270.06 172.96 268.69 173.19Z" fill="#FFFFFF"/><path d="M265.07 160.66C266.34 160.49 267.57 161.2 267.95 162.43 268.59 164.48 266.8 166.27 264.75 165.76L262.81 167.9C262.54 168.11 262.29 168.29 261.94 168.35 260.03 168.62 257.59 168.18 255.62 168.37 254.79 168.3 254.78 166.66 255.52 166.48L261.23 166.45C261.86 166.37 262.73 164.99 263.23 164.56 262.34 163.01 263.26 160.91 265.07 160.66ZM266.38 162.38C265.38 161.31 263.56 162.71 264.49 163.97 265.5 165.34 267.56 163.64 266.38 162.38Z" fill="#FFFFFF"/><path d="M255.5 176.94 261.89 176.92C262.95 177.01 263.64 178.4 264.36 179.07 265.17 178.99 265.82 178.96 266.53 179.4 268.32 180.51 268.07 183.3 266.09 184.03 263.77 184.89 261.69 182.46 262.89 180.32 262.44 179.92 261.92 178.89 261.3 178.83 259.46 178.66 257.39 178.99 255.52 178.8 254.8 178.62 254.81 177.09 255.5 176.93ZM265.07 180.37C263.16 180.52 263.84 183.55 265.69 182.71 266.84 182.19 266.39 180.26 265.07 180.37Z" fill="#FFFFFF"/><path d="M274.76 190.53C275.52 190.43 275.65 191.56 275.06 191.69 274.04 191.92 274.01 190.63 274.76 190.53Z" fill="#FFFFFF"/></g><path d="M450.47 166.98C448.93 164.39 446.78 162.78 444.48 162.01 442.64 161.39 440.69 161.3 438.88 161.67 437.08 162.04 435.41 162.86 434.11 164.08 432.57 165.52 431.54 167.51 431.44 169.94 431.42 170.43 431 170.82 430.51 170.8L430.49 170.8C427.68 170.61 425.75 171.97 424.82 173.84 424.43 174.61 424.21 175.48 424.16 176.36 424.11 177.25 424.22 178.16 424.52 179L424.52 179.04C425.31 181.23 427.29 183.06 430.62 183.32 430.62 183.49 430.61 183.67 430.61 183.85 430.61 184.27 430.61 184.7 430.61 185.12 430.57 185.12 430.54 185.12 430.5 185.12 426.34 184.8 423.84 182.45 422.85 179.65L422.83 179.6C422.45 178.52 422.31 177.38 422.37 176.26 422.44 175.14 422.73 174.04 423.22 173.04 424.36 170.77 426.56 169.07 429.73 168.99 430.04 166.45 431.22 164.34 432.9 162.77 434.44 161.33 436.41 160.36 438.54 159.92 440.65 159.49 442.92 159.59 445.07 160.31 447.88 161.25 450.48 163.25 452.27 166.47 454.12 166.11 455.76 166.34 457.15 166.99 459.09 167.9 460.5 169.62 461.3 171.64 462.08 173.63 462.27 175.93 461.78 178.05 461 181.44 458.52 184.39 453.99 185.03 453.95 185.03 453.91 185.03 453.87 185.03L453.75 185.03C453.78 184.64 453.8 184.24 453.8 183.83 453.8 183.63 453.8 183.43 453.79 183.24L453.79 183.24C457.42 182.71 459.4 180.35 460.03 177.64 460.44 175.86 460.28 173.94 459.63 172.28 458.99 170.66 457.89 169.3 456.39 168.59 454.18 167.55 451.05 167.93 447.18 170.96 446.79 171.27 446.23 171.2 445.92 170.81 445.61 170.42 445.68 169.86 446.07 169.55 447.63 168.32 449.11 167.48 450.49 166.96L450.49 166.96ZM447.02 181.73C447.47 181.73 447.84 182.09 447.84 182.55 447.84 183.01 447.47 183.37 447.02 183.37 446.57 183.37 446.2 183 446.2 182.55 446.2 182.1 446.56 181.73 447.02 181.73ZM447.02 191.13C447.47 191.13 447.84 191.5 447.84 191.95 447.84 192.4 447.47 192.77 447.02 192.77 446.57 192.77 446.2 192.41 446.2 191.95 446.2 191.49 446.56 191.13 447.02 191.13ZM447.02 186.52C447.47 186.52 447.84 186.88 447.84 187.34 447.84 187.8 447.47 188.16 447.02 188.16 446.57 188.16 446.2 187.79 446.2 187.34 446.2 186.89 446.56 186.52 447.02 186.52ZM436.81 179.52C438.17 179.97 440.06 180.26 442.17 180.26 444.28 180.26 446.17 179.98 447.53 179.52 448.72 179.12 449.46 178.64 449.46 178.17 449.46 177.7 448.72 177.22 447.53 176.82 446.17 176.37 444.28 176.08 442.17 176.08 440.06 176.08 438.17 176.36 436.81 176.82 434.28 177.67 434.21 178.66 436.81 179.53L436.81 179.53ZM449.46 189.14C449.03 189.43 448.49 189.69 447.85 189.9 446.38 190.39 444.37 190.69 442.16 190.69 439.95 190.69 437.94 190.39 436.47 189.9 435.84 189.69 435.3 189.44 434.88 189.15L434.88 192.25C434.97 192.69 435.69 193.13 436.8 193.5 438.16 193.95 440.05 194.24 442.16 194.24 444.27 194.24 446.16 193.96 447.52 193.5 448.34 193.22 448.95 192.91 449.25 192.59 449.49 192.32 449.46 192.15 449.46 191.83L449.46 189.14 449.46 189.14ZM433.84 178.17C433.84 177.2 434.85 176.38 436.48 175.84 437.95 175.35 439.96 175.05 442.17 175.05 444.38 175.05 446.39 175.35 447.86 175.84 449.35 176.34 450.32 177.06 450.48 177.92 450.5 177.97 450.51 178.03 450.51 178.09L450.51 192.38C450.51 193.37 448.62 194.25 447.86 194.5 446.39 194.99 444.38 195.29 442.17 195.29 439.96 195.29 437.95 194.99 436.48 194.5 435.71 194.24 433.85 193.39 433.85 192.38L433.85 192.05C433.85 187.43 433.84 182.8 433.84 178.18ZM434.88 187.67C434.97 188.11 435.69 188.55 436.8 188.92 438.16 189.37 440.05 189.66 442.16 189.66 444.27 189.66 446.16 189.38 447.52 188.92 448.71 188.52 449.45 188.04 449.45 187.57L449.45 187.57 449.45 184.55C449.02 184.84 448.48 185.1 447.84 185.31 446.37 185.8 444.36 186.1 442.15 186.1 439.94 186.1 437.93 185.8 436.46 185.31 435.83 185.1 435.29 184.85 434.87 184.56L434.87 187.66 434.87 187.66ZM434.88 183.08C434.97 183.52 435.69 183.96 436.8 184.33 438.16 184.78 440.05 185.07 442.16 185.07 444.27 185.07 446.16 184.79 447.52 184.33 448.71 183.93 449.45 183.45 449.45 182.98L449.45 182.98 449.45 179.74C449.02 180.03 448.48 180.29 447.84 180.5 446.37 180.99 444.36 181.29 442.15 181.29 439.94 181.29 437.93 180.99 436.46 180.5 435.83 180.29 435.29 180.04 434.87 179.75L434.87 183.08 434.87 183.08Z" fill="#FFFFFF"/><g><path d="M224.36 273.64C224.36 273.64 224.32 274.05 224.36 274.08 224.44 274.16 226.36 274.22 226.49 274.4 226.47 274.69 227.11 275.84 227.09 275.97 227.05 276.19 225.85 277.4 225.87 277.56L229.31 281.02C229.49 281.1 230.56 280.02 230.86 279.94 231.14 280.2 232.4 280.48 232.56 280.64 232.7 280.78 232.74 282.25 232.85 282.56L237.75 282.56C237.92 282.54 237.9 280.81 238.09 280.64 238.33 280.43 239.45 280.25 239.78 279.92 240.05 280.02 241.18 281.09 241.35 281.01L244.71 277.65 244.75 277.43 243.59 276.01C243.54 275.95 243.57 275.9 243.59 275.84 243.62 275.72 244.13 274.4 244.19 274.36 244.4 274.2 246.22 274.15 246.29 274.08 246.32 274.05 246.27 273.64 246.29 273.64L247.84 273.64C248.45 273.64 249.65 272.73 249.65 272.09L249.65 267.58C249.65 267.16 251 267.74 251.22 267.87 251.65 268.14 252.48 269.11 252.48 269.62L252.48 285.32 218.17 285.32 218.17 269.62C218.17 269 219.2 267.92 219.76 267.67 219.93 267.59 221 267.27 221 267.58L221 272.09C221 272.72 222.2 273.64 222.81 273.64 223.03 273.64 224.3 273.58 224.36 273.64Z" fill="#FFFFFF"/><path d="M236.64 261.98 236.92 264.17C237.85 264.31 238.66 264.76 239.51 265.14L241.2 263.85C241.32 263.86 242.92 265.49 242.97 265.6 243.05 265.77 242.99 265.84 242.91 265.98 242.77 266.24 241.8 267.23 241.8 267.41 242.33 268.19 242.79 269.07 242.93 270.01L244.94 270.29 244.96 272.88C244.93 273.03 243.45 273.05 243.24 273.12 243.01 273.19 242.89 274.14 242.78 274.43 242.67 274.72 242.03 275.98 242.03 276.07 242.03 276.36 243.09 277.18 242.99 277.55 242.96 277.67 241.43 279.2 241.32 279.25 240.94 279.42 240.21 278.46 239.82 278.35 238.94 278.95 237.95 279.4 236.9 279.59L236.63 281.22 234.05 281.22C233.87 281.19 233.83 279.89 233.8 279.65 232.72 279.37 231.68 278.97 230.76 278.33 230.46 278.49 229.66 279.34 229.36 279.27 229.06 279.2 227.93 277.75 227.57 277.51 227.47 277.3 228.62 276.28 228.58 275.98 228.56 275.86 228.02 274.93 227.91 274.61 227.82 274.36 227.57 273.25 227.51 273.19 227.33 273.01 226.01 273.01 225.68 272.9L225.68 270.31C225.73 270.06 227.43 270.17 227.66 269.9 227.72 269.83 227.97 268.95 228.07 268.72 228.28 268.25 228.53 267.8 228.83 267.38L227.55 265.7 229.39 263.84C229.58 263.76 230.86 265.01 231.19 265.11 231.99 264.69 232.81 264.29 233.72 264.14L234.01 261.95 236.64 261.95ZM234.6 267.92C229.88 268.56 230.39 276.19 235.55 275.94 240.71 275.69 240.5 267.12 234.6 267.92Z" fill="#FFFFFF"/><path d="M252.48 286.64 252.48 288.63C252.48 289.42 251.24 290.62 250.45 290.76 240.7 291.05 230.9 290.81 221.13 290.89 220.02 291.03 218.17 289.79 218.17 288.64L218.17 286.65 252.48 286.65Z" fill="#FFFFFF"/><path d="M241.51 292.12 241.51 294.15 244.3 294.15C244.95 294.15 245.43 295.54 244.13 295.66L226.44 295.66C225.25 295.52 225.7 294.15 226.35 294.15L229.14 294.15 229.14 292.12 241.52 292.12Z" fill="#FFFFFF"/><path d="M220.12 264.09C220.12 264.09 220.08 264.28 220.02 264.38 218.64 266.57 215.4 265.05 216.19 262.67 216.72 261.06 218.89 260.77 219.9 262.14 220 262.28 220.11 262.65 220.13 262.66 220.15 262.67 220.37 262.57 220.52 262.57 221.12 262.55 223.11 262.47 223.48 262.8 223.53 262.84 223.75 263.21 223.75 263.24L223.75 270.89C223.75 270.89 224.37 270.86 224.37 270.89L224.37 272.3 222.82 272.3C222.71 272.3 222.25 271.84 222.25 271.73L222.25 264.08C221.94 264.14 220.25 264 220.13 264.08Z" fill="#FFFFFF"/><path d="M250.53 264.09 248.41 264.09 248.41 271.74C248.41 271.91 248.01 272.31 247.84 272.31L246.29 272.31 246.29 270.9C246.29 270.9 246.91 270.93 246.91 270.9L246.91 263.34C246.91 263.14 247.18 262.75 247.42 262.7 248.24 262.51 249.6 262.8 250.48 262.68 251.57 260.01 255.46 261.52 254.41 264.21 253.74 265.93 251.08 265.85 250.54 264.1Z" fill="#FFFFFF"/><path d="M227.01 264.36 227.01 258.61 224.18 258.61C224.18 258.61 224.16 258.83 224.06 258.98 223.02 260.59 220.51 260.11 220.22 258.28 219.8 255.68 223.28 254.82 224.3 257.17 225.3 257.13 226.5 257.01 227.49 257.11 228.18 257.18 228.45 257.33 228.51 258.03 228.65 259.57 228.4 261.33 228.51 262.89 228.48 263.05 227.47 264.07 227.27 264.22 227.18 264.29 227.16 264.39 227 264.35Z" fill="#FFFFFF"/><path d="M246.47 258.61 243.64 258.61 243.64 264.36C243.49 264.4 243.46 264.3 243.37 264.23 243.17 264.08 242.17 263.06 242.13 262.9 242.24 261.33 241.98 259.58 242.13 258.04 242.2 257.33 242.46 257.18 243.15 257.12 244.13 257.02 245.34 257.14 246.34 257.18 246.67 256.7 246.83 256.32 247.38 256.04 249.44 255.01 251.38 257.4 250 259.19 249.05 260.43 246.89 260.16 246.47 258.62Z" fill="#FFFFFF"/><path d="M236.03 260.64 234.62 260.64 234.62 256.44C234.62 256.44 234.05 256.12 233.91 256 232.24 254.53 233.82 251.71 236.03 252.46 237.51 252.96 237.92 254.96 236.74 256 236.6 256.12 236.03 256.4 236.03 256.44L236.03 260.64Z" fill="#FFFFFF"/></g><g><path d="M465.87 253.1C466.35 253.14 467.14 253.31 467.62 253.44 471.43 254.43 472.84 257.79 472.96 261.46 474.17 261.46 476.05 261.16 476.2 262.84 476.32 264.15 476.32 266.82 476.2 268.13 476.03 269.92 473.97 269.32 472.77 269.43 472.65 269.44 471.83 269.6 471.78 269.63 471.66 269.7 471.27 270.52 471.13 270.72 469.3 273.44 466.48 275.16 463.1 274.52 460.52 274.03 458.35 271.91 457.26 269.6 456.92 269.63 456.61 269.46 456.29 269.43 455.01 269.32 453.13 269.95 452.78 268.21 452.92 266.48 452.6 264.47 452.78 262.77 452.95 261.18 454.87 261.48 456.01 261.47 456.2 257.84 457.5 254.5 461.29 253.47 461.78 253.34 462.61 253.16 463.1 253.12 463.85 253.06 465.11 253.06 465.86 253.12ZM470.65 268.45C470.72 268.39 470.77 268.24 470.86 268.15 471.03 268 471.26 268.01 471.3 267.8 471.38 266.31 471.19 264.7 471.3 263.22 471.33 262.83 471.55 262.34 471.55 262.04 471.55 260.35 471.03 257.8 469.93 256.48 467.84 253.97 461.7 253.94 459.4 256.13 458.08 257.39 457.35 260.34 457.43 262.12 457.44 262.38 457.64 262.8 457.66 263.15 457.79 264.71 457.56 266.42 457.66 268 458.32 268 458.5 268.92 458.81 269.42 460.38 271.95 462.75 273.72 465.87 272.95 467.14 272.64 468.49 271.75 469.24 270.69 468.83 270.75 468.42 270.86 468.01 270.92 467.7 270.96 467.01 270.94 466.77 271.02 466.64 271.06 466.34 271.83 465.65 272.02 465.07 272.18 463.42 272.17 462.84 272.01 461.23 271.54 461.36 268.64 463.06 268.41 463.56 268.34 464.99 268.34 465.49 268.41 465.91 268.47 466.41 268.81 466.63 269.16 466.83 269.47 466.54 269.55 467.15 269.51 468.08 269.45 469.92 269.05 470.63 268.46ZM456.17 262.96 454.28 262.96 454.28 267.93 456.17 267.93 456.17 262.96ZM474.69 262.96 472.8 262.96 472.8 267.93 474.69 267.93 474.69 262.96ZM465.31 269.89 463.26 269.89 463.26 270.6 465.31 270.6 465.31 269.89Z" fill="#FFFFFF"/><path d="M451.92 288.57 455.77 289.13 455.3 282.48C455.36 281.83 455.77 281.68 456.36 281.64 461.5 281.93 467.04 281.27 472.13 281.64 472.77 281.69 473.16 281.84 473.2 282.55L472.72 289.21 477.04 288.57 477.04 281.92C476.22 278.02 471.92 276.87 468.51 276.27 467.81 275.73 468.13 274.81 469.04 274.87 472.45 275.08 478.14 277.61 478.47 281.52 478.68 283.99 478.3 286.75 478.47 289.25 478.49 289.52 478.35 289.72 478.15 289.87 476.34 290.34 474.42 290.44 472.56 290.7 472.53 291.36 472.56 292.12 472.46 292.76 472.42 293.04 472.34 293.26 472.07 293.39 466.91 293.52 461.71 293.43 456.54 293.43 456.42 293.4 456.28 293.31 456.2 293.21 455.82 292.76 456.04 290.76 455.85 290.64 454.36 290.34 452.63 290.34 451.18 289.95 450.64 289.81 450.46 289.64 450.41 289.07 450.19 286.72 450.58 284.04 450.41 281.65 451.15 277.53 455.4 275.54 459.16 274.95 459.65 274.87 460.38 274.63 460.69 275.15 460.87 275.46 460.85 275.88 460.57 276.12 460.29 276.36 458.15 276.67 457.58 276.83 455.09 277.54 452.55 279.03 451.9 281.72L451.9 288.53ZM471.62 283.14 456.88 283.14 457.51 291.97 471.07 291.97 471.62 283.14Z" fill="#FFFFFF"/></g></svg>