<svg viewBox="0 0 360 360" xmlns="http://www.w3.org/2000/svg" xmlns:xlink="http://www.w3.org/1999/xlink" id="OBJECTS" overflow="hidden"><defs></defs><path d="M290 0C299.3 2.09 308.3 4.29 316.88 8.62 340.59 20.58 355.66 44.11 360 70L360 290C356.63 308.64 348.54 326.11 334.53 339.03 321.94 350.64 306.74 356.89 290 360L70 360C45.6 355.84 23.84 342.88 11.19 321.31 5.37 311.38 2.27 301.24-1.77636e-15 290L-1.77636e-15 70C4.84 35.09 34.22 3.62 70 0L290 0ZM174.79 39.29C66.57 43.28 3.06 164.29 61.58 255.92 118.31 344.73 250.12 341.21 302.17 249.68 356.59 153.99 284.43 35.26 174.79 39.3Z" fill="#FFFFFF"/><path d="M238 186C236.88 208.26 235.07 231.07 227.37 252.08 195.94 246.25 163.54 246.78 132.08 251.93 125.51 230.61 122.81 208.28 122 186L238 186Z" fill="#FFFFFF"/><path d="M122 174C120.92 166.91 128.21 111.58 131.63 110.92 163.78 116.52 196.71 116.01 228.92 111.07 234.66 131.52 237.25 152.77 238 174L122 174Z" fill="#FFFFFF"/><path d="M111 186C111.01 209.34 114.93 232.54 121.01 254.99 109.2 257.03 96.68 262.11 87.51 269.96 65.47 248.31 51.68 217.06 51.01 186L111.01 186Z" fill="#FFFFFF"/><path d="M309 186C308.6 209.78 299.82 234.36 286.41 253.91 284.71 256.38 274.24 269.97 272.49 269.71 262.99 262.25 250.9 256.95 238.99 255 245.06 232.55 248.98 209.35 249 186.01L309 186.01Z" fill="#FFFFFF"/><path d="M51 174C51.41 150.37 59.9 126.15 73.19 106.69 74.82 104.31 82.37 93.95 84.5 93.97 85.38 93.97 96.97 101.24 100.01 102.49 106.12 105 113.44 107.23 120 108.01 114.84 129.61 110.88 151.71 111 174.01L51 174.01Z" fill="#FFFFFF"/><path d="M309 174 249 174C249.08 151.71 245.21 129.59 239.99 108.01 250.69 106.65 261.22 102.13 270.7 97.21 272.33 96.36 273.9 93.99 275.49 93.97 277.62 93.95 285.18 104.31 286.8 106.69 300.01 126.02 308.58 150.53 308.99 174Z" fill="#FFFFFF"/><path d="M225 99.99C223.54 102.07 180.39 104.16 174.45 104.05 166.11 103.9 154.83 103.02 146.51 101.99 144.88 101.79 134.92 100.54 134.97 99.46 141.04 83.59 150.9 62.3 166.69 54.19 196.19 39.04 217.58 76.81 225 99.99Z" fill="#FFFFFF"/><path d="M224 263.01C218.26 278.23 207.51 299.45 192.05 306.54 163.99 319.4 143.7 284.85 136 263.01 164.9 257.58 195.1 257.68 224 263.01Z" fill="#FFFFFF"/><path d="M147 55.01C137.23 68.06 128.24 81.99 123.98 98 112.66 95.8 102.1 91.4 92.01 85.98 106.47 70.71 126.77 60.34 147.01 55.01Z" fill="#FFFFFF"/><path d="M268 85.98C257.95 91.43 247.26 95.63 236.03 98 231.77 81.99 222.78 68.06 213.01 55.01 233.22 60.39 253.62 70.61 268.01 85.98Z" fill="#FFFFFF"/><path d="M124.99 265C129.09 279.78 138 292.75 147 304.99 128.19 300.32 110.8 290.81 96 278.49 94.85 273.92 120.61 265.72 124.99 265Z" fill="#FFFFFF"/><path d="M213 304.99C222 292.74 230.91 279.78 235.01 265 245.02 267.95 256.07 270.31 263.99 277.52 264.46 279.68 247.42 290.6 244.67 292.17 234.96 297.72 223.89 302.33 213 304.99Z" fill="#FFFFFF"/></svg>