<svg viewBox="0 0 301.6 302.28" xmlns="http://www.w3.org/2000/svg" xmlns:xlink="http://www.w3.org/1999/xlink" id="Layer_1" overflow="hidden"><defs></defs><path d="M215.44 109.06C301.58 117.21 333.18 229.93 263.36 282.47 202.94 327.94 115.85 290.69 108.45 216.05L9.95 216.05C5.58 215.87 2.41 213.43 0.21 209.8L0 6.1C1.9 2.28 5.55 0.04 9.9 0L209.19 0.81C212.82 3.01 215.26 6.18 215.45 10.55L215.45 109.05ZM74.45 21.05 21.95 21.05 20.45 22.55 20.45 194.05 108.45 194.05C111.5 150.55 149.89 112.04 193.45 109.05L193.45 21.05 140.95 21.05 139.45 22.55 139.45 68.55C139.45 69.68 135.59 73.72 134.19 74.29 124.59 78.18 115.82 68.67 107.11 66.27 98.8 69.3 88.52 79.12 79.5 73.5 77.88 72.49 74.45 68.26 74.45 66.55L74.45 21.05ZM96.45 47.05C103.57 42.47 109.23 41.37 116.41 46.62L118.45 45.55 118.45 22.55 116.95 21.05 96.45 21.05 96.45 47.05ZM265.07 250.68C299.09 205.73 272.03 139.15 216.7 130.3 154.14 120.3 107.2 187.92 139.03 242.97 166 289.59 232.49 293.72 265.07 250.68Z" fill="#FFFFFF"/><path d="M196.06 213.46C197.59 214.81 200.13 219.47 202.36 217.96L228.43 165.52C238.19 157.28 250.32 164.32 246.98 177.08 234.94 196.44 226.93 223.15 214.65 241.74 210.6 247.87 205.33 250.25 198.5 246.5 193.1 238.95 163.18 214.9 161.67 208.34 159.54 199.08 167.9 190.92 176.73 195.28 180.34 197.06 191.65 209.57 196.07 213.46Z" fill="#FFFFFF"/></svg>