<svg viewBox="0 0 45.36 46.36" xmlns="http://www.w3.org/2000/svg" xmlns:xlink="http://www.w3.org/1999/xlink" id="Layer_1" overflow="hidden"><defs></defs><path d="M26.81 40.44C26.65 36.69 26.86 32.37 29.36 29.37L36.26 23.85C37.05 23.42 39.17 23.37 39.82 24.08 40.14 24.43 39.89 24.66 39.69 25.01L32.91 30.93C32.5 31.37 32.78 31.87 33.36 31.75L40.13 25.84C40.85 25.14 41.26 24.11 40.38 23.34 40.77 19.43 41.33 15.51 41.8 11.6 41.96 10.95 42.3 10.34 42.8 9.89 43.6 9.17 45.01 8.73 45.36 10.11L45.36 24.84C44.75 29.87 39.65 32.33 38 36.83 37.57 38 37.3 39.23 37.17 40.46L26.82 40.46Z" fill="#FFFFFF"/><path d="M4.72 23.65C4.72 23.65 4.64 23.69 4.59 23.79 4.4 24.21 4.45 24.53 4.61 24.95 4.93 25.77 6.8 27.21 7.55 27.86 9 29.14 10.5 30.42 11.97 31.7 12.53 31.93 12.86 31.37 12.47 30.95L5.58 24.9C5.35 24.57 5.26 24.4 5.54 24.07 6.18 23.33 8.48 23.43 9.26 23.93 11.26 25.73 13.62 27.26 15.62 29.04 17.9 31.07 18.53 35.08 18.61 38 18.61 38.31 18.62 40.32 18.49 40.41L8.2 40.43C8.02 39.03 7.73 37.61 7.18 36.31 5.45 32.18 0.52 29.64 0 24.82L0 10.21C0.46 8.03 2.97 9.78 3.4 11.06 4.13 15.01 4.4 19.05 4.99 23.03 5.07 23.34 4.86 23.44 4.72 23.65Z" fill="#FFFFFF"/><path d="M33.74 11.47C33.52 11.52 32.5 12.67 32.29 12.92 31.97 13.31 31.2 14.28 31.08 14.73 30.99 15.08 31.02 15.45 31.34 15.65 31.71 15.88 32.54 15.94 32.8 16.14 32.97 16.27 32.56 16.79 32.47 16.92 32.2 17.25 31.8 17.55 31.52 17.88 29.83 19.8 28.91 22.32 28.13 24.72 24.52 26.47 20.25 26.32 16.71 24.5 16.55 24.42 15.51 23.85 15.48 23.79 15.45 23.74 15.48 23.67 15.5 23.61 15.57 23.48 16.19 22.94 16.34 22.84 17.39 22.17 17.25 23.11 17.88 23.69 19.33 25.03 23.63 24.74 24.36 22.78 24.93 21.25 22.86 20.37 21.92 19.59 21.41 19.17 20.32 18.13 20.42 17.42 20.55 16.54 22.66 16.01 23.4 16.08 24.99 16.23 24.43 18.91 26.11 19.1 27.79 19.29 29.66 17.33 29.78 15.68 29.93 13.59 28.5 13.82 27.41 12.74 26.48 11.82 26.43 10.25 25.06 9.79 23.42 9.24 19.58 10.25 17.98 10.97 16.78 11.51 16.18 12.26 14.81 12.54 13.18 12.87 11.49 12.75 9.85 12.61 9.7 12.56 9.74 12.11 9.75 11.97 9.78 11.09 10.03 9.97 10.29 9.12 10.35 8.92 10.69 7.84 10.83 7.83 10.87 7.83 10.96 7.91 11.03 7.92 14.3 8.61 16.89 6.1 20 6.46 20.99 6.58 21.13 7.07 21.67 7.69 22.49 8.63 23.53 7.87 24.09 7.09 25.36 5.32 25.04 3.16 23.18 1.98 21.88 1.15 20.92 1.92 19.81 0.48 19.76 0.42 19.69 0.4 19.72 0.3 22.02-0.2 24.37-0.12 26.62 0.58 26.96 0.69 29.11 1.52 29.15 1.76 28.37 2.81 26.89 4.58 26.93 5.94 26.99 8.08 29.86 6.96 31.06 7.73 31.83 8.23 31.84 9.31 32.45 9.73 33.06 10.15 34.44 9.34 35.13 9.24 35.21 9.3 35.55 11.04 35.56 11.25 35.56 11.32 35.54 11.46 35.47 11.46 35.05 11.46 34.09 11.38 33.74 11.46Z" fill="#FFFFFF"/><path d="M27.09 13.66C27.53 14.02 28.25 14.31 28.57 14.62 29.63 15.64 27.89 18.06 26.6 18.2 26.06 18.26 25.95 18.18 25.72 17.72 25.32 16.91 25.22 15.91 24.31 15.44 22.84 14.67 19.08 15.83 19.56 17.97 19.92 19.59 21.87 20.53 22.99 21.5 23.78 22.18 23.71 22.66 22.78 23.15 21.71 23.71 19.74 23.88 18.69 23.22 18.27 22.95 18.19 22.48 17.87 22.12 16.88 21.02 15.34 22.34 14.69 23.2 12.06 21.16 10.19 17.99 9.8 14.66 9.78 14.48 9.66 13.57 9.82 13.54L11.55 13.71C13.29 13.71 15.22 13.72 16.76 12.81 17.04 12.64 17.31 12.38 17.58 12.22 18.96 11.39 23.1 10.24 24.61 10.64 25.54 10.88 25.71 12.02 26.2 12.75 26.44 13.11 26.75 13.4 27.09 13.68Z" fill="#FFFFFF"/><path d="M7.11 41.44C7.26 41.31 7.66 41.31 7.86 41.3 11.63 41.12 15.54 41.44 19.33 41.3 19.61 41.3 19.94 41.46 19.98 41.76L19.95 46.05C19.87 46.26 19.68 46.37 19.46 46.36L7.27 46.34C7.13 46.25 6.98 46.13 6.98 45.96 7.11 44.65 6.82 43.04 6.98 41.76 6.99 41.66 7.05 41.5 7.12 41.44Z" fill="#FFFFFF"/><path d="M38.26 41.44C38.33 41.49 38.39 41.67 38.4 41.76 38.56 43.04 38.27 44.64 38.4 45.96 38.4 46.14 38.24 46.26 38.11 46.34L25.92 46.36C25.7 46.37 25.51 46.26 25.43 46.05L25.4 41.76C25.46 41.33 25.96 41.32 26.29 41.3 30.03 41.1 33.94 41.45 37.7 41.3 37.84 41.31 38.16 41.36 38.27 41.44Z" fill="#FFFFFF"/><path d="M18.65 0.65C19.3 1.19 19.92 2.11 20.77 2.33 21.62 2.55 22.13 2.29 22.93 2.94 24.01 3.82 24.23 5 23.58 6.24 23.42 6.53 22.86 7.32 22.48 7.22 22.42 7.2 21.83 6.43 21.64 6.27 19 4.1 14.78 7.4 11.81 7.17 11.42 7.14 11.11 7.17 11.32 6.73 11.54 6.26 11.92 5.72 12.23 5.3 13.81 3.13 16.1 1.48 18.66 0.66Z" fill="#FFFFFF"/><path d="M35.62 12.4C35.76 14.06 35.44 15.8 34.88 17.36 33.89 20.13 31.91 22.58 29.36 24.05 29.29 24.05 29.34 23.91 29.36 23.86 29.76 22.41 30.86 20.2 31.77 19 32.34 18.25 33.87 17.13 33.76 16.14 33.67 15.3 32.57 15.17 31.98 14.9 32.54 13.99 33.27 13.2 33.98 12.4L35.61 12.4Z" fill="#FFFFFF"/><path d="M34.75 8.38C34.67 8.51 33.2 8.85 33 9.06 32.67 8.56 32.52 7.99 32.13 7.53 31.59 6.88 30.69 6.54 29.86 6.47 29.36 6.43 27.94 6.69 27.85 6.01 27.72 4.98 29.28 3.12 29.89 2.31 29.97 2.25 30.04 2.3 30.12 2.33 30.3 2.4 30.82 2.84 31 2.99 32.36 4.1 34.22 6.45 34.73 8.14 34.75 8.21 34.79 8.32 34.75 8.38Z" fill="#FFFFFF"/></svg>