<svg viewBox="0 0 316.83 267.45" xmlns="http://www.w3.org/2000/svg" xmlns:xlink="http://www.w3.org/1999/xlink" id="OBJECTS" overflow="hidden"><defs></defs><path d="M0 40.26 0 227.18C0 249.42 18.03 267.44 40.26 267.44L276.57 267.44C298.81 267.44 316.83 249.41 316.83 227.18L316.83 40.26C316.83 18.02 298.8 0 276.57 0L40.26 0C18.03 0 0 18.03 0 40.26ZM205.57 198.97 158.16 165.43 111.27 198.97 128.4 143.33 81.32 108.39 140.46 108.39 158.79 53 176.39 108.39 235.52 108.39 188.32 143.34 205.57 198.97Z" fill="#FFFFFF"/><path d="M176.25 140.44C172.47 141.67 161.48 152.33 158.76 152.6 156.2 152.85 144.29 141.59 140.59 140.45 139.52 138.64 146.66 121.58 147.3 118.23L169.55 118.23C170.18 121.6 177.33 138.59 176.25 140.44Z" fill="#FFFFFF"/><path d="M205.58 118.12C205.24 119.19 204.12 119.99 203.27 120.68 201.32 122.27 186.81 132.93 185.75 133.12 184.27 133.38 184.79 132.8 184.45 132.14 182.53 128.4 181.31 122.29 180.13 118.12L205.58 118.12Z" fill="#FFFFFF"/><path d="M136.72 118.12C136.41 120.2 132.66 132.91 131.83 133.1L111.27 118.12 136.72 118.12Z" fill="#FFFFFF"/><path d="M150.17 158.92 129.24 174.26C131.77 167.13 133.5 157.18 136.55 150.5 136.81 149.93 136.67 149.07 137.82 149.57 140.85 150.9 146.61 157.21 150.17 158.92Z" fill="#FFFFFF"/><path d="M187.61 174.26 166.67 158.92 180.12 149.56 187.61 174.26Z" fill="#FFFFFF"/><path d="M165.91 108.39 150.94 108.39 158.06 84.44C159.7 84.11 159 85.15 159.36 86.09 162.04 93.06 164.21 101.18 165.91 108.39Z" fill="#FFFFFF"/></svg>