<svg viewBox="0 0 60.33 62.99" xmlns="http://www.w3.org/2000/svg" xmlns:xlink="http://www.w3.org/1999/xlink" id="Layer_1" overflow="hidden"><defs></defs><path d="M60.31 15.02C60.23 14.75 58.79 14.24 58.65 13.95 58.44 13.55 59 13.01 58.83 12.44 58.78 12.22 57.99 12.02 57.97 11.98 57.89 11.87 58.69 10.64 58.22 10.19 58.02 10.02 57.68 10.1 57.6 9.7 57.4 8.67 58.11 7.52 57.98 6.5 57.91 6.01 57.6 6.11 57.59 6 57.56 5.76 57.84 5.59 57.83 5.41 57.79 4.93 56.14 3.59 55.67 3.51 55.35 3.46 55.16 3.61 54.96 3.59 54.74 3.58 53.72 3.52 53.68 3.48 53.65 3.45 53.61 3 53.52 2.84 53.06 2 52.05 3.31 51.62 3.35 51.35 3.37 50.65 2.72 50.17 2.75 49.96 2.77 49.77 2.97 49.54 2.99 49.16 3.03 48.69 2.92 48.34 3.02 48.14 3.09 47.99 3.38 47.76 3.43 47.17 3.6 45.5 2.11 44.87 1.89 44.58 1.59 44.77 0.36 44.29 0.07 43.89-0.16 43.41 0.24 43.08 0.35 42.42 0.57 42.05 0.58 41.55 1.27 41.22 1.72 41.03 3.5 40.71 4.25 40.26 5.29 38.87 7.88 38.16 8.71 36.46 10.7 33.47 10.64 31.69 12.58 31.41 12.9 31.19 13.32 30.9 13.64 30.51 14.05 29.38 14.88 29.19 15.25 28.86 15.89 29.2 16.7 29.03 17.31 28.94 17.58 27.72 19.16 27.47 19.56 27.1 20.17 27.01 23.3 27.31 24 27.71 24.98 28.21 24.85 27.72 26.22 27.27 27.47 26.46 27.85 25.85 28.68 25.56 29.07 25.56 29.69 25.18 30.19 24.18 31.52 22.69 31.13 21.86 32.29 21.54 32.74 21.39 33.52 20.92 33.81 20.48 34.09 19.92 33.98 19.45 34.19 19.13 34.32 18.94 34.65 18.62 34.71 17.96 34.86 17.29 34.89 16.52 35.08 16.26 35.15 15.97 35.06 15.72 35.13 15.09 35.31 14.2 37.2 13.98 37.82 13.52 39.07 13.7 40.18 12.52 40.91 11.77 41.39 10.44 41.95 9.92 42.75 9.7 43.07 9.67 43.69 9.51 44.06 9.35 44.4 9.05 44.66 8.9 45.05 8.28 46.65 8.56 48.47 7.27 49.95 6.89 50.39 5.04 51.61 4.95 51.76 4.82 52 5.04 52.6 4.9 52.82 4.88 52.86 4.61 52.96 4.45 53.17 4.19 53.55 4.09 54.18 3.81 54.61 3.67 54.83 3.17 55.08 3.1 55.27 2.96 55.72 3.33 56.06 3.33 56.12 3.31 56.26 2.76 56.3 2.64 56.54 2.3 57.21 3.06 58.08 1.81 58.78 1.34 59.04 0.83 59 0.55 59.62 0.41 59.95 0.01 61.68 1.15463e-14 62.02 1.15463e-14 62.23 0.09 62.77 0.24 62.88 1.98 62.76 14.86 63.3 15.39 62.76 15.9 62.23 15.06 57.29 14.95 56.3 15.69 55.78 16.78 54.71 17.67 54.58 18.08 54.51 18.9 54.75 19.05 54.24L19.25 43.73C19.4 43.5 20.86 43.63 21.23 43.62 22.17 43.57 22.8 43.62 23.69 43.62 26.29 43.62 28.91 43.64 31.51 43.55 31.64 43.46 31.74 42.66 31.75 42.44 32.01 39.17 31.5 35.58 31.82 32.29 33.42 30.98 35.25 29.05 37.39 28.74 38.1 28.63 38.58 29.15 39.23 28.86 39.41 28.78 39.55 28.54 39.72 28.49 41.26 28.04 42.68 29.69 43.82 28.4 45.42 26.58 46.56 24.58 49.2 23.81 49.65 23.68 50.26 23.85 50.66 23.43 51.06 22.98 50.96 21.92 51.07 21.33 50.74 21.26 50.58 21.41 50.33 21.57 50.25 21.46 50.41 19.66 50.51 19.47 50.79 19.03 52.78 19.23 53.34 18.85 53.91 18.46 53.31 17.46 53.6 17.25 53.84 17.09 56.57 17.1 57.04 17.14 57.66 17.21 59.35 18.03 59.75 17.39 59.95 17.09 59.53 16.9 59.55 16.6 59.59 16.15 60.5 15.8 60.3 15.01ZM59.08 17.15C57.51 16.63 55.61 16.48 53.97 16.66 52.7 16.8 53.1 17.49 53.05 18.5 52.55 18.51 50.31 18.73 50.09 19.08 49.85 19.46 49.71 21.64 50.04 21.95 50.18 22.08 50.46 22.04 50.49 22.15 50.51 22.29 50.35 23.06 50.24 23.13 50.17 23.17 49.09 23.3 48.71 23.45 47.51 23.91 45.48 25.41 44.63 26.39 44.33 26.74 43.31 28.33 43.09 28.42 42.72 28.59 40.79 27.65 39.77 27.92 39.44 28.01 39.08 28.42 38.82 28.46 38.55 28.5 38.36 28.28 38.1 28.24 35.72 27.94 33.34 30.46 31.56 31.71 31.41 31.94 31.3 32.19 31.28 32.47 30.96 35.22 31.43 38.62 31.28 41.47 31.26 42 31.06 42.55 31.16 43.12 29.17 43.1 27.17 43.14 25.18 43.12 24.9 43.12 24.63 42.99 24.33 42.99 23.59 42.99 19.18 42.97 18.88 43.27 18.41 43.73 19 52.54 18.59 53.86 18.48 54.21 17.77 54.01 17.45 54.07 17.23 54.11 16.86 54.28 16.66 54.39 16.45 54.51 14.79 55.64 14.68 55.74 14.6 55.84 14.52 55.91 14.48 56.03L15.05 62.32 0.65 62.44C0.53 61.64 0.73 61.18 0.97 60.48 1.02 60.31 0.98 60.09 1.02 59.95 1.25 59.34 3.17 59.12 3.23 57.7 3.24 57.43 3.05 57.11 3.1 56.86 3.14 56.7 3.97 56.7 3.85 55.99 3.83 55.82 3.6 55.67 3.65 55.55 3.73 55.39 4.28 54.89 4.49 54.52 4.65 54.22 4.76 53.64 4.9 53.46 5.1 53.19 5.54 53.35 5.56 52.76 5.56 52.54 5.38 52.29 5.49 52.1 6.21 51.43 7.61 50.6 8.11 49.79 8.98 48.37 8.86 46.74 9.37 45.38 9.53 44.93 9.87 44.65 10.01 44.3 10.5 43.11 10.25 42.96 11.47 42.07 12.39 41.4 13.44 41.42 13.9 40.18 14.3 39.06 14.77 36.02 16.11 35.63 16.58 35.49 17.46 35.33 17.95 35.27 19.27 35.12 18.75 35.03 19.71 34.67 20.16 34.51 20.73 34.54 21.18 34.29 21.92 33.88 22 32.65 22.72 32.15 23.66 31.52 24.47 31.8 25.49 30.62 26.06 29.98 25.93 29.64 26.22 29.13 26.44 28.77 27.16 28.25 27.51 27.72 28.03 26.93 28.64 25.74 28.38 24.77 28.27 24.35 27.79 23.98 27.71 23.48 27.63 22.99 27.62 20.75 27.71 20.29 27.8 19.84 29.33 18.06 29.49 17.52 29.66 16.98 29.45 16.27 29.56 15.74 29.6 15.51 31.19 14.13 31.53 13.77 31.78 13.5 31.91 13.16 32.14 12.91 33.53 11.35 36.16 11.14 37.86 9.77 38.97 8.87 40.73 5.69 41.26 4.32 41.66 3.31 41.65 1.49 42.72 0.98 43.05 0.83 43.57 0.88 43.89 0.56 44.42 1.02 43.98 1.67 44.43 2.2 44.67 2.48 47.11 3.94 47.46 3.98 48.2 4.08 48.25 3.59 48.58 3.51 48.83 3.44 49.04 3.62 49.28 3.61 49.6 3.6 49.92 3.31 50.15 3.29 50.57 3.28 51 3.75 51.29 3.82 52.02 4.02 52.44 3.37 53.04 3.11 52.9 4.35 53.55 3.93 54.32 3.98 54.5 3.99 54.68 4.16 54.82 4.18 55.04 4.18 55.24 3.94 55.53 4 55.75 4.04 57.21 5.25 57.21 5.39 57.21 5.49 56.74 5.81 56.87 6.24 56.96 6.51 57.41 6.51 57.46 6.58 57.58 6.75 56.98 8.98 56.98 9.46 56.99 10.35 57.77 10.49 57.83 10.7 57.88 10.94 57.38 11.6 57.49 12.02 57.59 12.36 58.26 12.54 58.33 12.8 58.38 13.03 58.13 13.19 58.1 13.4 57.84 14.71 59.14 14.63 59.81 15.37 59.37 15.91 58.72 16.38 59.08 17.15Z" fill="#FFFFFF"/><path d="M59.08 17.15C57.51 16.63 55.61 16.48 53.97 16.66 52.7 16.8 53.1 17.49 53.05 18.5 52.55 18.51 50.31 18.73 50.09 19.08 49.85 19.46 49.71 21.64 50.04 21.95 50.18 22.08 50.46 22.04 50.49 22.15 50.51 22.29 50.35 23.06 50.24 23.13 50.17 23.17 49.09 23.3 48.71 23.45 47.51 23.91 45.48 25.41 44.63 26.39 44.33 26.74 43.31 28.33 43.09 28.42 42.72 28.59 40.79 27.65 39.77 27.92 39.44 28.01 39.08 28.42 38.82 28.46 38.55 28.5 38.36 28.28 38.1 28.24 35.72 27.94 33.34 30.46 31.56 31.71 31.41 31.94 31.3 32.19 31.28 32.47 30.96 35.22 31.43 38.62 31.28 41.47 31.26 42 31.06 42.55 31.16 43.12 29.17 43.1 27.17 43.14 25.18 43.12 24.9 43.12 24.63 42.99 24.33 42.99 23.59 42.99 19.18 42.97 18.88 43.27 18.41 43.73 19 52.54 18.59 53.86 18.48 54.21 17.77 54.01 17.45 54.07 17.23 54.11 16.86 54.28 16.66 54.39 16.45 54.51 14.79 55.64 14.68 55.74 14.6 55.84 14.52 55.91 14.48 56.03L15.05 62.32 0.65 62.44C0.53 61.64 0.73 61.18 0.97 60.48 1.02 60.31 0.98 60.09 1.02 59.95 1.25 59.34 3.17 59.12 3.23 57.7 3.24 57.43 3.05 57.11 3.1 56.86 3.14 56.7 3.97 56.7 3.85 55.99 3.83 55.82 3.6 55.67 3.65 55.55 3.73 55.39 4.28 54.89 4.49 54.52 4.65 54.22 4.76 53.64 4.9 53.46 5.1 53.19 5.54 53.35 5.56 52.76 5.56 52.54 5.38 52.29 5.49 52.1 6.21 51.43 7.61 50.6 8.11 49.79 8.98 48.37 8.86 46.74 9.37 45.38 9.53 44.93 9.87 44.65 10.01 44.3 10.5 43.11 10.25 42.96 11.47 42.07 12.39 41.4 13.44 41.42 13.9 40.18 14.3 39.06 14.77 36.02 16.11 35.63 16.58 35.49 17.46 35.33 17.95 35.27 19.27 35.12 18.75 35.03 19.71 34.67 20.16 34.51 20.73 34.54 21.18 34.29 21.92 33.88 22 32.65 22.72 32.15 23.66 31.52 24.47 31.8 25.49 30.62 26.06 29.98 25.93 29.64 26.22 29.13 26.44 28.77 27.16 28.25 27.51 27.72 28.03 26.93 28.64 25.74 28.38 24.77 28.27 24.35 27.79 23.98 27.71 23.48 27.63 22.99 27.62 20.75 27.71 20.29 27.8 19.84 29.33 18.06 29.49 17.52 29.66 16.98 29.45 16.27 29.56 15.74 29.6 15.51 31.19 14.13 31.53 13.77 31.78 13.5 31.91 13.16 32.14 12.91 33.53 11.35 36.16 11.14 37.86 9.77 38.97 8.87 40.73 5.69 41.26 4.32 41.66 3.31 41.65 1.49 42.72 0.98 43.05 0.83 43.57 0.88 43.89 0.56 44.42 1.02 43.98 1.67 44.43 2.2 44.67 2.48 47.11 3.94 47.46 3.98 48.2 4.08 48.25 3.59 48.58 3.51 48.83 3.44 49.04 3.62 49.28 3.61 49.6 3.6 49.92 3.31 50.15 3.29 50.57 3.28 51 3.75 51.29 3.82 52.02 4.02 52.44 3.37 53.04 3.11 52.9 4.35 53.55 3.93 54.32 3.98 54.5 3.99 54.68 4.16 54.82 4.18 55.04 4.18 55.24 3.94 55.53 4 55.75 4.04 57.21 5.25 57.21 5.39 57.21 5.49 56.74 5.81 56.87 6.24 56.96 6.51 57.41 6.51 57.46 6.58 57.58 6.75 56.98 8.98 56.98 9.46 56.99 10.35 57.77 10.49 57.83 10.7 57.88 10.94 57.38 11.6 57.49 12.02 57.59 12.36 58.26 12.54 58.33 12.8 58.38 13.03 58.13 13.19 58.1 13.4 57.84 14.71 59.14 14.63 59.81 15.37 59.37 15.91 58.72 16.38 59.08 17.15Z" fill="#FFFFFF"/></svg>