<svg width="101" height="47" xmlns="http://www.w3.org/2000/svg" xmlns:xlink="http://www.w3.org/1999/xlink" overflow="hidden"><g transform="translate(-470 -461)"><g><g><g><path d="M29.8056 0C30.7614 0.214806 31.6864 0.440917 32.5682 0.885944 35.0051 2.11517 36.5539 4.53353 37 7.19444L37 29.8056C36.6536 31.7213 35.8222 33.5169 34.3823 34.8447 33.0883 36.038 31.5261 36.6804 29.8056 37L7.19444 37C4.68667 36.5724 2.45022 35.2404 1.15008 33.0235 0.551917 32.0029 0.233306 30.9608 -1.8257e-16 29.8056L-1.8257e-16 7.19444C0.497444 3.60647 3.51706 0.372056 7.19444 0L29.8056 0ZM17.9645 4.03814C6.84192 4.44822 0.3145 16.8854 6.32906 26.3029 12.1596 35.4306 25.7068 35.0688 31.0564 25.6616 36.6495 15.8268 29.2331 3.62394 17.9645 4.03917Z" fill="#FFFFFF" transform="matrix(1.02703 0 0 1 501 462)"/><path d="M24.4611 19.1167C24.346 21.4045 24.16 23.7489 23.3686 25.9082 20.1383 25.309 16.8083 25.3635 13.5749 25.8928 12.8996 23.7016 12.6221 21.4066 12.5389 19.1167L24.4611 19.1167Z" fill="#FFFFFF" transform="matrix(1.02703 0 0 1 501 462)"/><path d="M12.5389 17.8833C12.4279 17.1546 13.1771 11.4679 13.5286 11.4001 16.8329 11.9757 20.2174 11.9233 23.5279 11.4155 24.1178 13.5173 24.384 15.7014 24.4611 17.8833L12.5389 17.8833Z" fill="#FFFFFF" transform="matrix(1.02703 0 0 1 501 462)"/><path d="M11.4083 19.1167C11.4094 21.5155 11.8123 23.8999 12.4371 26.2073 11.2233 26.417 9.93656 26.9391 8.99408 27.7459 6.72886 25.5208 5.31156 22.3089 5.24269 19.1167L11.4094 19.1167Z" fill="#FFFFFF" transform="matrix(1.02703 0 0 1 501 462)"/><path d="M31.7583 19.1167C31.7172 21.5607 30.8148 24.087 29.4366 26.0963 29.2619 26.3502 28.1858 27.7469 28.0059 27.7202 27.0295 26.9535 25.7869 26.4088 24.5629 26.2083 25.1867 23.901 25.5896 21.5165 25.5917 19.1177L31.7583 19.1177Z" fill="#FFFFFF" transform="matrix(1.02703 0 0 1 501 462)"/><path d="M5.24167 17.8833C5.28381 15.4547 6.15639 12.9654 7.52231 10.9654 7.68983 10.7207 8.46581 9.65597 8.68472 9.65803 8.77517 9.65803 9.96636 10.4052 10.2788 10.5337 10.9068 10.7917 11.6591 11.0209 12.3333 11.101 11.803 13.321 11.396 15.5924 11.4083 17.8844L5.24167 17.8844Z" fill="#FFFFFF" transform="matrix(1.02703 0 0 1 501 462)"/><path d="M31.7583 17.8833 25.5917 17.8833C25.5999 15.5924 25.2021 13.319 24.6656 11.101 25.7654 10.9613 26.8476 10.4967 27.8219 9.99103 27.9895 9.90367 28.1508 9.66008 28.3142 9.65803 28.5332 9.65597 29.3102 10.7207 29.4767 10.9654 30.8344 12.9521 31.7152 15.4711 31.7573 17.8833Z" fill="#FFFFFF" transform="matrix(1.02703 0 0 1 501 462)"/><path d="M23.125 10.2767C22.9749 10.4905 18.5401 10.7053 17.9296 10.694 17.0724 10.6786 15.9131 10.5882 15.058 10.4823 14.8904 10.4618 13.8668 10.3333 13.8719 10.2223 14.4958 8.59119 15.5092 6.40306 17.132 5.56953 20.164 4.01244 22.3624 7.89436 23.125 10.2767Z" fill="#FFFFFF" transform="matrix(1.02703 0 0 1 501 462)"/><path d="M23.0222 27.0316C22.4323 28.5959 21.3274 30.7768 19.7385 31.5055 16.8545 32.8272 14.7692 29.2763 13.9778 27.0316 16.9481 26.4735 20.0519 26.4838 23.0222 27.0316Z" fill="#FFFFFF" transform="matrix(1.02703 0 0 1 501 462)"/><path d="M15.1083 5.65381C14.1042 6.99506 13.1802 8.42675 12.7424 10.0722 11.5789 9.84611 10.4936 9.39389 9.45658 8.83683 10.9427 7.26742 13.0291 6.20161 15.1094 5.65381Z" fill="#FFFFFF" transform="matrix(1.02703 0 0 1 501 462)"/><path d="M27.5444 8.83683C26.5115 9.39697 25.4128 9.82864 24.2586 10.0722 23.8208 8.42675 22.8968 6.99506 21.8927 5.65381 23.9698 6.20675 26.0665 7.25714 27.5455 8.83683Z" fill="#FFFFFF" transform="matrix(1.02703 0 0 1 501 462)"/><path d="M12.8462 27.2361C13.2676 28.7552 14.1833 30.0882 15.1083 31.3462 13.1751 30.8662 11.3878 29.8888 9.86667 28.6226 9.74847 28.1529 12.396 27.3101 12.8462 27.2361Z" fill="#FFFFFF" transform="matrix(1.02703 0 0 1 501 462)"/><path d="M21.8917 31.3462C22.8167 30.0872 23.7324 28.7552 24.1538 27.2361 25.1826 27.5393 26.3183 27.7819 27.1323 28.5229 27.1806 28.7449 25.4293 29.8672 25.1466 30.0286 24.1487 30.599 23.0109 31.0728 21.8917 31.3462Z" fill="#FFFFFF" transform="matrix(1.02703 0 0 1 501 462)"/></g></g></g><path d="M549.5 487C560.27 487 569 495.73 569 506.5" stroke="#FFFFFF" stroke-width="1.66667" stroke-linecap="round" stroke-miterlimit="8" fill="none" fill-rule="evenodd"/><path d="M19.5 0C30.2696-4.96522e-15 39 8.73045 39 19.5" stroke="#FFFFFF" stroke-width="1.66667" stroke-linecap="round" stroke-miterlimit="8" fill="none" fill-rule="evenodd" transform="matrix(-1 0 0 1 510 487)"/></g></svg>