<svg viewBox="0 0 450.03 450.08" xmlns="http://www.w3.org/2000/svg" xmlns:xlink="http://www.w3.org/1999/xlink" id="OBJECTS" overflow="hidden"><defs></defs><path d="M415.65 34.38C415.3 34.03 414.86 33.7 414.37 33.4 411.59 31.65 408.33 30.81 405.04 30.81L45.61 30.52C38.33 30.52 31.77 35.39 30.16 42.49 30.12 42.67 30.08 42.86 30.04 43.04 29.98 43.36 29.95 43.7 29.95 44.02L29.75 197.52C29.75 198.05 29.68 198.59 29.51 199.09 24.77 213.24 6.23 213.85 0.76 199.93 0.54 199.37 0.45 198.77 0.45 198.17L0.11 44.57C0.1 39.49 0.92 34.43 2.71 29.68 7.43 17.15 17.03 7.42 29.46 2.77 34.61 0.85 40.09 0 45.58 0L407.31 0C407.46 0 407.61 0 407.77 0 430.26 1.68 446.54 18.18 449.93 40.12 449.97 40.39 449.99 40.67 449.99 40.95L450.03 408.24C450.03 408.46 450.02 408.67 449.99 408.89 447.47 430.91 430.87 447.51 408.85 450.03 408.64 450.05 408.42 450.07 408.2 450.07L253.98 450.07C253.64 450.06 253.3 450.03 252.96 449.96 236.18 446.59 235.56 424.76 251.89 420.26 252.32 420.14 252.77 420.09 253.22 420.09L406.06 420.05C406.36 420.05 406.65 420.03 406.95 419.98 414.13 418.73 419.28 413.04 420.01 405.87 420.03 405.67 420.04 405.47 420.04 405.27L419.24 44.93C419.24 41.86 418.48 38.81 416.95 36.15 416.55 35.46 416.13 34.83 415.66 34.36Z" fill="#FFFFFF"/><path d="M38.75 240.3C80.9 240.3 128.58 240.05 169.49 240.05 190.68 240.05 207.42 259.78 209.99 280.55 209.99 322.15 210.03 368.11 210.03 408.58 210.03 430.42 190.89 447.25 169.49 450.04 127.73 450.04 82.54 450.08 41.46 450.08 20.31 450.08 7.10543e-15 430.83 7.10543e-15 409.54 7.10543e-15 368.62 0.1 321.12 0.1 279.65 3.37 259.09 18.23 243.87 38.75 240.3ZM41.72 270.27C35.37 272.5 31.02 276.66 29.97 283.52L29.97 406.57C31.17 414.2 36.83 420.1 44.44 420.1 82.53 420.1 127.47 420.07 166.51 420.07 174.02 418.96 179.41 413.05 180.04 405.6L180.01 283.53C178.75 276.47 173.81 271.12 166.51 270.03L41.71 270.28Z" fill="#FFFFFF"/><path d="M284.55 105.05C282.17 105.05 279.84 104.39 277.81 103.14 275.98 102.01 274.07 100.68 273.52 100.02 266.12 91.1 270.75 78.19 281.71 75.28 306.96 75.28 338.61 75.03 361.51 75.03 368.94 75.03 375.01 81.1 375.01 88.52 375.01 113.04 374.76 144.19 374.76 168.32 371.85 179.28 358.94 183.91 350.02 176.51 348.92 175.59 344.98 169.23 344.98 168.55L344.98 127.05 250.47 221.04C234.42 232.52 217.31 215.41 228.98 199.55L322.98 105.05 284.54 105.05Z" fill="#FFFFFF"/></svg>