<svg width="101" height="46" xmlns="http://www.w3.org/2000/svg" xmlns:xlink="http://www.w3.org/1999/xlink" overflow="hidden"><g transform="translate(-156 -462)"><g><g><g><path d="M0 5.26865 0 29.73C0 32.6405 2.35951 34.9987 5.26865 34.9987L36.1935 34.9987C39.1039 34.9987 41.4621 32.6392 41.4621 29.73L41.4621 5.26865C41.4621 2.3582 39.1026 0 36.1935 0L5.26865 0C2.35951 0 0 2.35951 0 5.26865ZM26.902 26.0383 20.6977 21.6491 14.5614 26.0383 16.8031 18.757 10.642 14.1845 18.3814 14.1845 20.7801 6.93588 23.0834 14.1845 30.8215 14.1845 24.6446 18.7583 26.902 26.0383Z" fill="#FFFFFF" transform="matrix(1.01073 0 0 1 185.047 463)"/><path d="M23.0651 18.3788C22.5704 18.5397 21.1322 19.9348 20.7762 19.9701 20.4412 20.0028 18.8826 18.5293 18.3984 18.3801 18.2584 18.1432 19.1927 15.9106 19.2765 15.4722L22.1883 15.4722C22.2707 15.9133 23.2064 18.1367 23.0651 18.3788Z" fill="#FFFFFF" transform="matrix(1.01073 0 0 1 185.047 463)"/><path d="M26.9033 15.4578C26.8589 15.5979 26.7123 15.7026 26.601 15.7929 26.3459 16.0009 24.447 17.396 24.3083 17.4208 24.1146 17.4549 24.1827 17.379 24.1382 17.2926 23.8869 16.8031 23.7272 16.0036 23.5728 15.4578L26.9033 15.4578Z" fill="#FFFFFF" transform="matrix(1.01073 0 0 1 185.047 463)"/><path d="M17.8919 15.4578C17.8514 15.73 17.3606 17.3933 17.252 17.4182L14.5614 15.4578 17.8919 15.4578Z" fill="#FFFFFF" transform="matrix(1.01073 0 0 1 185.047 463)"/><path d="M19.6521 20.7972 16.9131 22.8046C17.2442 21.8716 17.4706 20.5695 17.8697 19.6953 17.9037 19.6207 17.8854 19.5081 18.0359 19.5736 18.4324 19.7476 19.1862 20.5734 19.6521 20.7972Z" fill="#FFFFFF" transform="matrix(1.01073 0 0 1 185.047 463)"/><path d="M24.5517 22.8046 21.8114 20.7972 23.5715 19.5723 24.5517 22.8046Z" fill="#FFFFFF" transform="matrix(1.01073 0 0 1 185.047 463)"/><path d="M21.7119 14.1845 19.7529 14.1845 20.6846 11.0503C20.8992 11.0071 20.8076 11.1432 20.8547 11.2662 21.2055 12.1784 21.4894 13.241 21.7119 14.1845Z" fill="#FFFFFF" transform="matrix(1.01073 0 0 1 185.047 463)"/></g></g></g><path d="M235.5 487C246.27 487 255 495.73 255 506.5" stroke="#FFFFFF" stroke-width="1.66667" stroke-linecap="round" stroke-miterlimit="8" fill="none" fill-rule="evenodd"/><path d="M19.5 0C30.2696-4.96522e-15 39 8.73045 39 19.5" stroke="#FFFFFF" stroke-width="1.66667" stroke-linecap="round" stroke-miterlimit="8" fill="none" fill-rule="evenodd" transform="matrix(-1 0 0 1 196 487)"/></g></svg>