<svg viewBox="0 0 589.06 589" xmlns="http://www.w3.org/2000/svg" xmlns:xlink="http://www.w3.org/1999/xlink" id="Layer_1" overflow="hidden"><path d="M379.26 173.53C416.19 203.84 433.12 254.73 425.27 301.43 417 350.62 377.3 374.08 369.84 425 368.55 433.83 369.84 445.06 368.33 452.49 365.82 464.82 346.47 465.64 343.79 452.49 339.34 430.64 351.79 390.07 362.18 370.34 370.69 354.2 384.05 341.11 391.73 324.89 420.38 264.4 388.71 191.54 324.77 172.5 236.45 146.19 156.73 233.55 191.37 318.9 200.02 340.22 217.37 356.07 227.73 376.54 236.33 393.55 242.69 414.73 244.54 433.73 244.86 437.04 245.85 448.97 245.33 451.49 243.12 462.31 229.17 466.36 222.55 456.72 219.34 452.05 220.37 440.98 219.54 434.73 214.35 395.9 202.36 384.32 182.14 354.13 118.7 259.39 189.86 135.92 303.09 143.18 328.92 144.84 359.3 157.15 379.25 173.53Z" fill="#6E0C0C"/><path d="M235.29 497.45 347 497.29C361.15 500.98 360.77 519.82 346.09 522.25L236.13 522.16C222.9 518.99 222.65 501.63 235.29 497.45Z" fill="#6E0C0C"/><path d="M226.82 485.03C226.61 484.74 225.87 478.49 225.89 477.88 226.09 471.68 230.96 466.93 237.03 466.2L346.99 466.29C361.84 470.22 360.58 489.45 345.06 491.23 311.98 495.02 271.89 488.4 238.06 491.23 235.26 491.54 228.19 486.89 226.82 485.04Z" fill="#6E0C0C"/><path d="M353.22 531.56C359.96 538.01 358.08 547.82 350.3 552.46 312.46 554.17 274.14 552.81 236.12 553.15 220.75 548.97 223.7 529.86 239.05 528.21 272.7 530.36 309.86 525.35 343.09 528.18 346.36 528.46 350.8 529.24 353.22 531.55Z" fill="#6E0C0C"/><path d="M147.9 169.88C141.67 164.67 135.42 156.41 129.6 150.68 114.93 136.24 99.44 121.89 84.85 107.93 84.6 107.69 81.7 102.36 81.48 101.8 76.52 88.61 92 79.39 102.05 88.23 119.13 109.67 150.57 130.83 165.97 152.31 176.05 166.37 159.87 179.9 147.89 169.88Z" fill="#6E0C0C"/><path d="M501.21 101.88C482.41 123.75 456.1 143.13 437.5 165.67 425.49 175.8 410.51 163.27 417.53 149.7 437.38 131.16 455.3 110.27 474.91 91.58 477.08 89.51 481.42 85.38 483.65 83.82 489.82 79.48 495.41 78.34 501.11 84.19 505.9 89.11 505.58 96.82 501.22 101.89Z" fill="#6E0C0C"/><path d="M477.91 300.87C470.52 293.8 474.61 280.25 485.04 279.2L579 279.29C592.85 282.19 592.27 302.54 578.09 304.25 549.56 307.68 514.3 301.61 485.04 304.25 482.66 304.08 479.57 302.46 477.92 300.87Z" fill="#6E0C0C"/><path d="M2.88 305.91C-3.01 298.86 0.52 286.32 10.04 285.2L104.97 285.31C119.75 288.53 117.62 308.49 103.08 310.24 75.18 313.6 40.67 307.68 12.06 310.22 9.32 310.13 4.57 307.93 2.88 305.91Z" fill="#6E0C0C"/><path d="M300.01 111.67C292.99 118.68 282.41 114.75 279.61 105.67L279.61 8.78C285-5.44 304.37-1.37 304.54 13.73 302.78 41.55 306.93 72.29 304.59 99.75 304.16 104.77 303.53 108.15 300.01 111.66Z" fill="#6E0C0C"/><path d="M169.16 441.83C164.33 447.65 158.81 451.34 153.52 456.68 139.47 470.88 124.97 486.02 111.13 499.25 109.44 500.86 108.45 503.41 106.05 505.21 93.04 514.99 78.37 501.22 87.55 487.71L152.07 423.22C165 413.32 180.63 428 169.17 441.83Z" fill="#6E0C0C"/><path d="M505.22 500.88C500.4 505.92 491.91 505.19 486.9 500.88 464.81 481.82 444.53 454.63 422.1 435.18 414.11 422.76 428.77 409.24 442.08 420.2 464.04 438.29 483.74 464.84 505.55 483.73 509.75 488.38 509.5 496.41 505.22 500.89Z" fill="#6E0C0C"/><path d="M330.22 584.88C328.6 586.5 325.44 587.96 323.09 588.25 303.51 590.62 279.22 586.48 259.12 588.17 245.04 583.16 246.76 565.3 262.18 563.34 274.14 561.82 308.98 561.83 320.95 563.34 332.07 564.75 338.44 576.67 330.22 584.89Z" fill="#6E0C0C"/></svg>