<svg viewBox="0 0 79.38 79.35" xmlns="http://www.w3.org/2000/svg" xmlns:xlink="http://www.w3.org/1999/xlink" id="Layer_1" overflow="hidden"><path d="M43.08 79.35 36.27 79.35C35.1 79.08 33.89 79.02 32.71 78.81 16.48 75.92 3.45 62.94 0.59 46.69 0.38 45.51 0.32 44.3 0.05 43.13 0.16 40.9-0.1 38.53 0.05 36.32 1.07 21.27 12.08 7.5 26.12 2.42 55.51-8.2 85.05 17.77 78.44 48.24 74.87 64.69 60.07 78.17 43.07 79.35ZM37.35 16.51 37.35 5.21C32.52 7.08 29.74 11.99 27.75 16.51L37.35 16.51ZM51.59 16.51C49.6 12 46.84 7.06 41.99 5.21L41.99 16.51 51.59 16.51ZM13.67 16.51 22.65 16.51C23.81 13.17 25.45 9.95 27.6 7.15 26.99 7.11 26.11 7.55 25.48 7.82 20.97 9.79 16.93 12.86 13.67 16.51ZM65.67 16.51C62.41 12.84 58.36 9.8 53.86 7.82 53.22 7.54 52.39 7.08 51.74 7.15 53.89 9.96 55.53 13.18 56.69 16.51L65.67 16.51ZM21.1 21.15 10.19 21.15C7.02 25.95 5.22 31.64 4.85 37.4L18.78 37.4C18.87 31.91 19.67 26.43 21.1 21.15ZM37.35 21.15 26.05 21.15C24.54 26.42 23.63 31.9 23.57 37.4L37.35 37.4 37.35 21.15ZM53.29 21.15 41.99 21.15 41.99 37.4 55.77 37.4C55.71 31.9 54.8 26.42 53.29 21.15ZM74.5 37.4C74.12 31.64 72.34 25.95 69.16 21.15L58.25 21.15C59.69 26.43 60.48 31.91 60.57 37.4L74.5 37.4ZM18.78 42.05 4.85 42.05C5.23 47.81 7.01 53.5 10.19 58.3L21.1 58.3C19.68 53.01 18.86 47.54 18.78 42.05ZM37.35 42.05 23.57 42.05C23.63 47.55 24.54 53.03 26.05 58.3L37.35 58.3 37.35 42.05ZM55.77 42.05 41.99 42.05 41.99 58.3 53.29 58.3C54.8 53.03 55.71 47.55 55.77 42.05ZM74.5 42.05 60.57 42.05C60.48 47.54 59.67 53.01 58.25 58.3L69.16 58.3C72.34 53.5 74.12 47.81 74.5 42.05ZM22.65 62.94 13.67 62.94C16.93 66.59 20.98 69.66 25.48 71.63 26.1 71.9 26.99 72.34 27.6 72.3 25.44 69.5 23.83 66.27 22.65 62.94ZM37.35 62.94 27.75 62.94C29.73 67.46 32.51 72.37 37.35 74.24L37.35 62.94ZM51.59 62.94 41.99 62.94 41.99 74.24C46.82 72.39 49.61 67.45 51.59 62.94ZM65.67 62.94 56.69 62.94C55.51 66.27 53.9 69.5 51.74 72.3 52.39 72.37 53.22 71.91 53.86 71.63 58.36 69.64 62.42 66.6 65.67 62.94Z" fill="#6E0C0C"/></svg>