<svg viewBox="0 0 293.59 383.28" xmlns="http://www.w3.org/2000/svg" xmlns:xlink="http://www.w3.org/1999/xlink" id="Layer_1" overflow="hidden"><path d="M166.26 383.28C157.03 380.08 153.57 367.89 160.98 361.16 162.23 360.03 164.98 359.33 165.39 358.08 165.73 357.04 166.02 340.62 165.43 339.93 161.4 338.6 143.88 334.85 141.96 332.34 141.46 331.69 141.14 330.41 140.98 329.57 139.89 323.67 139.98 297.11 140.87 290.9 141.84 284.13 148.87 284.65 149.73 290.13L149.81 327.1C156.18 329.11 166.35 330.63 172.03 333.64 172.93 334.12 173.11 334.27 173.4 335.3 175.11 341.53 172.3 352.34 173.7 358.07 173.89 358.86 175.83 359 176.69 359.71 186.24 367.63 184.18 377.72 173.73 383.26L166.24 383.26ZM168.3 366.19C163.47 367.57 164.9 376.93 171.54 374.72 176.9 372.94 174.26 364.49 168.3 366.19Z" fill="#FFFFFF"/><path d="M139.9 105.04C194.39 101.73 258.52 144.01 290.49 186.06 292.46 188.65 294.57 190.3 293.1 193.87 292.18 196.12 282.08 207.06 279.67 209.63 232.21 260.32 167.13 295.74 97.19 268.58 66.73 256.75 21.13 223.29 2.35 196.5 0.75 194.22-0.57 193.1 0.26 189.97 0.75 188.11 10.37 177.42 12.43 175.17 43.87 140.82 92.22 107.93 139.91 105.04ZM142.9 113.28C96.64 115.17 49.29 147.75 18.78 180.78 17.13 182.56 9.83 190.39 9.97 191.91 10.07 192.96 17.01 200.61 18.41 202.14 54.28 241.13 109.64 277.16 164.92 268.53 211.51 261.26 252.75 226.97 283.41 193.13 284.63 190.53 279.42 185.63 277.43 183.4 245.42 147.72 192.75 111.23 142.9 113.27Z" fill="#FFFFFF"/><path d="M218.65 344.35 254.21 344.35C254.83 344.35 258.05 337.4 263.36 336.29 283.99 331.96 284.84 364.83 263.99 361.52 258.71 360.68 256.91 356.11 253.47 353.33 241.4 352.29 227.06 354.73 215.27 353.35 213.44 353.14 211.93 352.62 210.79 351.09L210.44 272.14C211.38 267.14 218.65 270.24 218.65 272.12L218.65 344.35ZM265.62 344.47C260.13 345.52 261.46 354.3 267.5 353.22 273.54 352.14 271.69 343.31 265.62 344.47Z" fill="#FFFFFF"/><path d="M74.93 38.95 39.37 38.95C38.75 38.95 35.53 45.9 30.22 47.01 9.59 51.34 8.74 18.47 29.59 21.78 34.87 22.62 36.67 27.19 40.11 29.97 52 30.94 65.9 28.66 77.54 29.97 79.09 30.14 82.07 30.75 82.79 32.2L83.13 111.16C82.19 116.16 74.92 113.06 74.92 111.18L74.92 38.95ZM25.33 30.1C20.5 31.48 21.93 40.84 28.57 38.63 33.93 36.85 31.29 28.4 25.33 30.1Z" fill="#FFFFFF"/><path d="M88.41 318.15 88.41 278.1C88.41 274.86 95.67 273.12 96.63 278.12L96.25 324.12C95.36 325.4 94.23 326.45 92.56 326.42L40.12 326.38C38.01 326.64 38.01 329.07 36.76 330.5 25.53 343.34 7.26 327.49 16.55 314.78 20.97 308.73 28.86 307.41 34.88 312.16 36.52 313.46 39 318.14 39.38 318.14L88.41 318.14ZM23.47 325.46C27.57 329.55 34.91 322.59 29.71 318.85 24.8 315.32 20.02 322.02 23.47 325.46Z" fill="#FFFFFF"/><path d="M205.18 65.15 205.18 105.2C205.18 107.68 197.91 110.27 197 104.4 195.02 91.61 198.4 74.29 196.91 61 196.88 58.34 199.45 57.05 201.8 56.9L253.47 56.92C255.91 56.46 257.2 49.74 264.01 48.75 285.03 45.69 283.45 77.37 263.37 73.21 257.76 72.05 254.85 65.15 254.22 65.15L205.19 65.15ZM265.62 56.28C260.36 57.23 261.1 66.26 266.88 65.88 273.28 65.46 272.32 55.06 265.62 56.28Z" fill="#FFFFFF"/><path d="M128.16 43.37C128.86 44.18 145.66 47.92 148.7 49.4 150.06 50.06 151.28 50.7 151.88 52.21 152.33 61.39 151.85 70.6 152.01 79.78 152.09 84.11 155.7 98.73 147.36 97.22 144.89 96.77 144.2 94.65 143.88 92.4 143.12 87.14 144.92 57.61 143.73 56.24 139.58 54.66 122.46 51.31 120.55 48.36 118.26 44.81 121.08 30.12 119.89 25.23 119.78 24.78 114.31 21.95 112.78 19.46 105.57 7.75 119.62-5.52 131.34 2.39 137.24 6.37 138.06 16.11 133.34 21.37 132.11 22.74 128.67 23.87 128.21 25.23 127.87 26.23 127.57 42.69 128.16 43.37ZM121.86 8.4C117.39 9.78 118.57 19.08 125.29 17.09 130.31 15.6 128.45 6.37 121.86 8.4Z" fill="#FFFFFF"/><path d="M111.13 374.03C107.3 370 106.65 363.29 109.78 358.61 111.34 356.28 114.88 355.29 115.34 352.95L115.34 288.57C116.16 281.5 123.53 281.51 124.35 288.57L124.33 352.97C124.67 354.74 129.65 357.15 131 360.52 136.38 373.91 119.67 383.03 111.13 374.03Z" fill="#FFFFFF"/><path d="M177.48 97.71C176.69 100.52 170.42 100.67 169.41 96.05 167.84 88.91 169.1 68.76 169.22 60.25 169.24 58.48 170 56.84 170.03 55.07 170.16 46.83 169.87 38.57 170 30.33 169.76 28.19 167.24 28.24 165.86 26.98 157.21 19.09 163.14 5 174.86 6 184.37 6.81 189 17.97 183.07 25.44 182.09 26.67 177.49 29.17 177.49 29.59L177.49 97.71Z" fill="#FFFFFF"/><path d="M188.08 306.81C188.27 307.11 190.14 307.41 190.92 308.07 205.19 320.29 185.65 338.61 174.61 325.89 169.19 319.64 171.2 312.47 177.11 307.64 177.91 306.99 179.58 307.18 179.78 306.46 181.14 301.61 178.67 289.92 179.75 284.11 180.59 279.6 186.76 279.69 187.8 284.25 188.74 288.35 187.03 305.17 188.08 306.8Z" fill="#FFFFFF"/><path d="M113.98 76.49C112.94 78.12 114.6 95.25 113.85 99.19 113.25 102.32 108.97 103.62 106.78 101.05 103.8 97.55 106.9 81.97 105.66 76.88 105.47 76.08 103.52 75.96 102.67 75.23 97.6 70.87 96.12 64.79 99.76 58.91 109.13 43.77 132.56 62.16 116.82 75.23 116.04 75.88 114.17 76.21 113.98 76.49Z" fill="#FFFFFF"/><path d="M142.15 132.74C189.64 128.79 221.68 180.75 197.55 221.82 176.2 258.15 123.56 260.66 99.01 226.33 72.05 188.62 96.31 136.55 142.15 132.74ZM143.65 140.98C98.72 144.09 79.48 200.14 113.47 229.85 142.94 255.61 189.63 239.12 196.76 200.82 202.71 168.88 176.12 138.74 143.65 140.98Z" fill="#FFFFFF"/><path d="M143.62 167.15C176.46 162.85 181.71 213.77 148.66 216.35 117.52 218.78 112.23 171.26 143.62 167.15ZM145.13 175.36C121.28 177.98 129.69 215.85 153.06 206.53 170.43 199.61 163.08 173.38 145.13 175.36Z" fill="#FFFFFF"/></svg>