<svg viewBox="0 0 48.73 48.89" xmlns="http://www.w3.org/2000/svg" xmlns:xlink="http://www.w3.org/1999/xlink" id="Layer_1" overflow="hidden"><defs><clipPath id="clippath"><rect x="0" y="0" width="48.73" height="48.89" fill="none"/></clipPath></defs><g clip-path="url(#clippath)"><path d="M13.58 17.67C11.62 20.41 10.46 23.76 10.46 27.38 10.46 36.62 17.98 44.13 27.21 44.13 36.44 44.13 43.96 36.61 43.96 27.38 43.96 18.15 36.44 10.63 27.21 10.63 23.59 10.63 20.24 11.79 17.5 13.75L14.1 10.35C17.73 7.55 22.28 5.88 27.21 5.88 39.07 5.88 48.72 15.53 48.72 27.39 48.72 39.25 39.07 48.9 27.21 48.9 15.35 48.9 5.7 39.24 5.7 27.38 5.7 22.45 7.37 17.9 10.17 14.27L13.57 17.67Z" fill="#FFFFFF"/><path d="M16.09 20.18 18.6 22.7C17.84 24.09 17.41 25.69 17.41 27.39 17.41 32.8 21.81 37.2 27.22 37.2 32.63 37.2 37.03 32.8 37.03 27.39 37.03 21.98 32.63 17.58 27.22 17.58 25.52 17.58 23.93 18.01 22.53 18.77L20.02 16.26C22.09 14.91 24.57 14.13 27.22 14.13 34.54 14.13 40.48 20.07 40.48 27.39 40.48 34.71 34.54 40.65 27.22 40.65 19.9 40.65 13.96 34.71 13.96 27.39 13.96 24.73 14.74 22.26 16.09 20.19" fill="#FFFFFF"/><path d="M21.55 27.38C21.55 30.51 24.09 33.05 27.22 33.05 30.35 33.05 32.89 30.51 32.89 27.38 32.89 24.25 30.35 21.71 27.22 21.71 24.09 21.71 21.55 24.25 21.55 27.38" fill="#FFFFFF"/></g><path d="M4.72 0 3.79 3.84 0 4.99 6.95 11.57 9.3 10.86 26.52 28.08 27.92 26.68 10.92 9.67 11.67 6.58 4.72 0Z" fill="#FFFFFF"/></svg>