<svg viewBox="0 0 280.55 280.73" xmlns="http://www.w3.org/2000/svg" xmlns:xlink="http://www.w3.org/1999/xlink" id="Layer_1" overflow="hidden"><defs></defs><path d="M239.37 40.46C305.97 107.02 289.45 219.21 206.74 263.63 91.56 325.49-38.2 208.55 10.53 87.43 47.56-4.6 168.8-30.07 239.37 40.46ZM95.71 61.11C115.47 63.14 135.33 65 155.26 64.15 162.44 63.85 173.17 63.2 180.1 61.99 181.4 61.76 186.64 60.91 186.69 59.61 178.62 38.19 160.78 3.34 132.71 11.6 115.31 16.72 98.93 43.86 95.71 61.1ZM196.73 59.12C208.09 55.12 220.04 53.48 229.69 45.62 214.31 29.74 193.8 20.01 172.71 14.12 171.5 15.33 179.71 24.56 180.93 26.39 187.76 36.68 192.64 47.48 196.73 59.12ZM108.72 15.12C91.76 17.97 73.53 27.33 60.25 38.14 58.87 39.27 52.51 44.28 52.77 45.51 55.4 49.97 82.36 59.39 84.6 57.99 90.02 42.41 97.99 27.69 108.73 15.13ZM11.72 135.11 71.72 135.11C71.9 112.43 76.12 90.21 80.69 68.15 67.66 65.45 55.21 60.66 44.25 53.11 24.37 75.48 11.63 104.84 11.72 135.11ZM232.35 55.73C227.54 58.46 221.02 61.84 215.89 63.78 212.95 64.9 201.47 66.89 200.83 68.74 204.21 90.33 210.06 111.94 209.15 134.14L269.71 135.52C269.88 132.66 270.08 131.38 269.79 128.52 268.64 117.23 267.65 109.32 263.99 98.32 258.57 82 249.34 65.21 237 53.25 233.75 52.43 233.2 55.24 232.34 55.72ZM82.72 135.11 198.22 135.11C199.33 134.34 199.26 134.19 199.29 133.04 199.51 123.59 198.29 110.95 196.91 101.51 196.31 97.4 191.59 70.81 189.28 70.39 175.56 73.72 161.32 73.82 147.23 74.13 137.75 74.34 127.91 74.75 118.23 74.11 114 73.83 93.5 70.37 91.68 71.58 87.62 78.42 80.44 132.84 82.72 135.12ZM210.22 145.11C209.83 147.34 209.79 148.4 209.62 150.5 208.98 158.46 208.57 166.55 207.58 174.47 205.9 187.92 201.84 201.1 199.63 214.47 211.2 219.19 223.6 222.4 233.21 230.8 252.05 213.97 265.3 186.33 269.44 161.34 269.86 158.79 269.94 146.55 270.01 144.89 269.32 144.87 229.29 144.29 210.21 145.11ZM71.72 145.11 11.72 145.11C11.49 170.04 20.67 195.27 34.9 215.43 36.62 217.87 45.93 230.16 48.04 229.97 58.23 223.03 69.56 217.65 81.68 215.07 76.16 192.14 72.02 168.82 71.72 145.11ZM82.72 145.11C83.01 167.35 85.47 190.59 92.67 211.65 95.01 213.23 103.85 210.45 107.23 210.12 130.47 207.85 151.85 207.74 175.1 210.22 179.42 210.68 183.89 212.38 188.28 212.77 189.79 212.53 190.24 209.75 190.66 208.54 195.72 193.9 199.27 165.8 198.85 150.51 198.79 148.33 198.93 147.34 198.22 145.1L82.72 145.1ZM184.69 222.14C164.96 219.53 144.12 218.01 124.18 219.07 116.75 219.47 105.46 220.65 98.23 222.14 96.79 222.44 96.62 221.35 96.7 223.61 96.92 229.21 108.28 248.32 112.19 253.14 134.46 280.53 158.28 272.12 175.16 245.06 177.09 241.96 186.84 224.37 184.69 222.14ZM225.59 236.23C216.27 230.93 206.18 226.91 195.68 224.54 192.24 233.01 188.99 241.24 184.14 249.04 182.73 251.31 171.76 265.15 172.73 266.12 183.46 262.87 194.15 259.29 204.04 253.94 207.76 251.93 223.72 241.9 225.23 239.12 225.7 238.26 226.1 237.11 225.6 236.24ZM108.71 266.11 96.71 248.62 85.75 225.53C82.99 223.6 55.72 234.82 55.73 237.62 70.17 251.9 89.39 260.45 108.71 266.11Z" fill="#FFFFFF"/></svg>